/* XPM */
static char *result[] = {
/* columns rows colors chars-per-pixel */
"64 64 218 2 ",
"   c #22101E",
".  c #1B1724",
"X  c #1C1D2D",
"o  c #240F22",
"O  c #251222",
"+  c #2B1323",
"@  c #2B1827",
"#  c #221C2C",
"$  c #361928",
"%  c #201F31",
"&  c #1E212E",
"*  c #1E2332",
"=  c #24222D",
"-  c #29282E",
";  c #3B232C",
":  c #37282B",
">  c #243826",
",  c #212532",
"<  c #2A2533",
"1  c #242834",
"2  c #2B2935",
"3  c #232638",
"4  c #24293A",
"5  c #2B2D3A",
"6  c #392934",
"7  c #2C3D31",
"8  c #2E313D",
"9  c #32333D",
"0  c #3B383A",
"q  c #471C27",
"w  c #501F2A",
"e  c #44222C",
"r  c #4B272D",
"t  c #55262E",
"y  c #472A34",
"u  c #542932",
"i  c #5A2B33",
"p  c #48353C",
"a  c #573239",
"s  c #642C32",
"d  c #61343A",
"f  c #69393C",
"g  c #2C4F1D",
"h  c #3C6C1C",
"j  c #2D4624",
"k  c #365827",
"l  c #36502A",
"z  c #354A37",
"x  c #3A6724",
"c  c #477031",
"v  c #383844",
"b  c #3A3B45",
"n  c #453C45",
"m  c #553A42",
"M  c #6A3E43",
"N  c #3D414C",
"B  c #44444C",
"V  c #4B464A",
"C  c #55474B",
"Z  c #47504E",
"A  c #464955",
"S  c #4C4C52",
"D  c #524D51",
"F  c #5C4D53",
"G  c #595557",
"H  c #53555C",
"J  c #674546",
"K  c #6E4C4B",
"L  c #724A4B",
"P  c #664D51",
"I  c #6B5351",
"U  c #6F5051",
"Y  c #655A57",
"T  c #635C5C",
"R  c #6B5D5C",
"E  c #765756",
"W  c #58724C",
"Q  c #6C6958",
"!  c #575A61",
"~  c #5A5D64",
"^  c #615D61",
"/  c #785C62",
"(  c #636265",
")  c #6B6464",
"_  c #696769",
"`  c #746362",
"'  c #746B65",
"]  c #7A6967",
"[  c #7A6C66",
"{  c #746C6C",
"}  c #74746B",
"|  c #7B726C",
" . c #6E6F71",
".. c #6D7178",
"X. c #737373",
"o. c #7A7471",
"O. c #7D7973",
"+. c #75797B",
"@. c #7B7D7A",
"#. c #8D1B27",
"$. c #C71D18",
"%. c #D51115",
"&. c #E30613",
"*. c #E30815",
"=. c #E3111D",
"-. c #C6211C",
";. c #DE1723",
":. c #D51B22",
">. c #E31723",
",. c #C72724",
"<. c #C52C27",
"1. c #D12426",
"2. c #CD3536",
"3. c #C43936",
"4. c #E42B35",
"5. c #8C434C",
"6. c #BD625F",
"7. c #826965",
"8. c #816E6B",
"9. c #84736C",
"0. c #8D766C",
"q. c #837B74",
"w. c #867B75",
"e. c #907D7A",
"r. c #BB6765",
"t. c #BA7C7A",
"y. c #CC484A",
"u. c #E64C55",
"i. c #E6535C",
"p. c #E76F76",
"a. c #638A5E",
"s. c #788871",
"d. c #7EA46B",
"f. c #86837D",
"g. c #8A847A",
"h. c #8A847C",
"j. c #948679",
"k. c #9A8C7C",
"l. c #829679",
"z. c #777A81",
"x. c #E87B81",
"c. c #7A8182",
"v. c #838582",
"b. c #8C8C84",
"n. c #838689",
"m. c #8D8F8A",
"M. c #928D83",
"N. c #978E84",
"B. c #8B9185",
"V. c #8D928D",
"C. c #94948C",
"Z. c #989488",
"A. c #96998E",
"S. c #9A9A8E",
"D. c #8D8F94",
"F. c #8D9491",
"G. c #8F9992",
"H. c #929592",
"J. c #959A94",
"K. c #9B9D92",
"L. c #9B9996",
"P. c #A19A8D",
"I. c #A79F90",
"U. c #B59998",
"Y. c #9DA095",
"T. c #9BA596",
"R. c #A2A395",
"E. c #AAA594",
"W. c #A3A59A",
"Q. c #A6AA9C",
"!. c #AAAC9D",
"~. c #B1AB97",
"^. c #B2A998",
"/. c #A5A6A6",
"(. c #A7A9A4",
"). c #ABACAD",
"_. c #AEAFAC",
"`. c #AEB1A3",
"'. c #B5B7A8",
"]. c #B9BCAB",
"[. c #B2B2B2",
"{. c #B8BBB4",
"}. c #BABBBC",
"|. c #D18F90",
" X c #E98F94",
".X c #E99EA2",
"XX c #C8B3AA",
"oX c #EAB0B3",
"OX c #AECC9A",
"+X c #BDC2B1",
"@X c #C3C5B3",
"#X c #C8CAB5",
"$X c #C7CBB8",
"%X c #D3CEB4",
"&X c #D2D5BD",
"*X c #BEBFC2",
"=X c #C1BDC0",
"-X c #EBBFC1",
";X c #C3C3C5",
":X c #CBCCCD",
">X c #CED4C2",
",X c #D2D6C4",
"<X c #D6DBC5",
"1X c #D7DAC7",
"2X c #D5DBCA",
"3X c #D9DCCB",
"4X c #D2D3D4",
"5X c #DCDED6",
"6X c #EBCED0",
"7X c #D7E0CB",
"8X c #DCE4CC",
"9X c #DCE4D3",
"0X c #E2E8CD",
"qX c #E4ECD3",
"wX c #E6EAD4",
"eX c #EBF5D9",
"rX c #E8E5E5",
"tX c #EDEDED",
/* pixels */
"* , # , , , , , , < , , = , = , 1 < * , , , , < & , , , , , * & = & = , , * , , - * * & * * * , , - , = 1 = < = , # , , , 1 , , ",
", , , , 1 2 , , , , 1 , , 1 , , 1 , , , < 1 1 1 , , , , * , , , = , , 1 , < 1 , * 1 1 - 1 , 1 1 , , 1 , 1 , , , , , , , , , , < ",
"2 3 , , , , , , , , 4 , 1 , , 3 , 2 1 , , , , , , * = , - * - , , , , 1 , , , , * * , 1 , 1 1 - 1 1 1 1 , 1 3 , 1 1 1 2 , 1 , , ",
", , , , 1 , , * 1 , , 2 , , 2 , 1 , , 1 , , 3 , * = , * , * * , & , 1 , , , < , * - * 1 1 1 1 , 1 1 1 , 1 , 2 , , , , , 2 1 , , ",
", 3 3 < , , 3 < 3 , 1 2 1 1 , 2 1 , 1 , , * * * * , * - * * , * , * , , , , , , * * * , 1 1 1 1 1 1 1 , 1 , , , 3 2 , , 1 1 1 , ",
", 3 , , 3 , , , , , 1 , 1 , , , 1 , , , * * - * * , * * > * * , * , , * , , , , - * * , , 1 1 1 1 1 1 1 < 1 , , , , , , , 1 1 , ",
"3 , , , 3 * , , 3 < 3 , , 2 3 , 1 , , * > * * * , , * * & * * , , , , , * , , , , , , , 3 , 1 * , 1 , , , , 3 < , < < , 1 1 1 , ",
"< , 3 < % < , % * , , , , 1 , 3 , , * , * & - * * , - * * * , * , * & * , , * * * , , , , , - , 1 1 1 1 , , , % , * , , 1 1 , , ",
", , 3 3 3 * , * * * * * , , 4 , 1 * * * * * * , , * & * - * * , * * , * * , * * , * * * - * * * , 3 , , 1 , , , , % , , , , , , ",
", , < , , , A +.+.S & * * 1 , 4 , * , - * * , * * * * > * , , * , , * - , , , , * - > * * , * * , , 3 * , N c.z.X.X * * , 3 2 3 ",
"3 , , , ,  .b.3XeX$Xb.& , 3 , 2 1 * * , * * , , , * * * * * , , * * * * & * * * , * * * , * * , , , , % H b.,XeXqX@.* * , 2 , , ",
"3 , , , # f.C.W.<XeX#Xv * , 4 4 1 * , , > & * , , , * - * * * & * - * * * * > * , , * * , * , * , 3 * 6 8.S.(.3XeX<X( * , , , , ",
", < * * a 9.N.'.Q.wX>X[ < 3 4 4 , * > & * > * * * * * * * * * * > & * - * * - * * , & * * * > & , 3 , r 7.P.L.].<X+X'.v , , , 3 ",
"3 3 * * p s E N.Y.@XS.Y < * 4 4 * * * * & * * * - * * > * - * > * * * * & > * , - * > * , * * * , 4 3 e f 0.Z.L M.@Xf.2 * * , 3 ",
"* * * & . $ $ y n V p 1 & * 4 * * * , * * , * - , * & * , * * * * , * * * * * , * * * * , * - * , * * # $ $ p 6 ; n 2 % % , % , ",
"3 * ( 5X2XB 2X3X3X,X .2X9XN 1 * - * , , * , , , * , , * , * * * * , - * * * , * * * - * * , * * * X 4X3X3X1X3X5X1X@X3X2X/.X , , ",
"3 * B Z.K.>XY.W.R.Q.Q.Q.`.2 1 * , * * & , * , , * * * * 1 * > & , , * * * * * - * , , * * , , * , . q.J.K.S.S.R.`.$XR.E.@.& * * ",
"4 , n K w.F.J.J.K.K.C.K.Y.# , * , , * > * , , * * * 1 * 1 * * * * * , * - * * * , , * , - * , , * X I | b.w.S.K.v.n m.Z.{ * * , ",
", , # @ +   + O O + + + O * * , * - * * * * * - * * * * * * * - , * & * * * * * * - * & * * , * X v # +   o O O + $ + + # , , * ",
"3 3 3 X $ w J K K K M ; X * , * , * * * > * * 8 D.D.D.D.5.#.#.#.#.#.D.F.V.G...* * * > * * * & * * * . + t f K I U K u . * , , , ",
"3 , , p 0.&X<X`.+X0X0X&XH - , * * - * , * * 1 *XtXtXtXtX;.&.&.&.*.*. XtXtXtXtX..* * > * * * * * * * - 7.~.1X<XI.1X3X&XK.X * * * ",
", , X p 8.| o.f.h.q.b.].G * , , * * , , * * n.:X:X:X:X|.:.:.:.:.:.:.2.>X:X:X:X;XN , * * - * * > * * 9 | q.| o.f.h.K.^.W.X * , , ",
"3 , % . . O + + + $ +   & * * * * * , * * * H.[.[.[.[.t.$.$.$.$.$.$.,.{.[.[.[.[.H , , , * , , * * & =     @ O + $ + O O % , 3 , ",
"3 , * * $ t K I I P.R : & * * & - * * , , 3 H.[.[.[.[.t.$.$.$.$.$.$.-.[.[.[.[.[.~ * , * , , * * * * * @ q s F ` 0.] 6 X 3 3 , , ",
"3 3 , * u R S.^ [ qX8XX.- * * > * > & * * * G.[.[.[.[.N.$.$.$.$.$.$.$.[.[.[.[.[.! * * * , , * & * , , ; E M.| M.%X&Xq.4 * , * , ",
", 3 * % i f.s.L.G $XqX@.* * * * * * * * * N 4X4X4X4X4Xp.;.;.;.;.;.;.=.XX4X4X4X4X/.* * , , * * > , , * ; 8.J.W.v.@.A.K.8 * , * , ",
"* , * X r p M.qX@X^ 8Xs.* * , , * * * , 5 :XtXtXtXtX6X>.&.&.&.&.&.&.&.u.tXtXtXtXtXn.* , * * - * * , * 6 9.C.`.0X8X^ D 3 * * , 3 ",
"4 * * X $ h.!.qXeXX.C _ * - * * * - * , ).tXtXtXtXtXx.&.&.&.&.&.&.&.&.&..XtXtXtXtXtX~ * , , * * * , & 6 R C C.qXeX8X@., * , * % ",
"4 , * X a M.!.7XwXeXs.6 * * * , * * * H +X}.*X}.=X}.2.1.1.1.1.1.1.1.1.1.y.}.}.}.}.}.)., & * * * , * * & p ' `.,XeXeX~.5 * , 3 , ",
"3 3 * X a j.R.R.{.>X@X) , * , , * > 1 H [.[.[.[.[.[.,.$.$.$.$.$.$.$.$.$.<.[.[.[.[.[.).* * * > - * - , - 8.!.!.K.$X<X`.5 * * , , ",
", 3 * X a K S.A.Y.!.+X` = , = * * , * ~ [.[.[.[.[.[.<.$.$.$.$.$.$.$.$.$.2.[.[.[.[.[.`., * * * * - * , : 9.S.Y.W.Q.E.K.5 * * , , ",
"3 * * X u ' A.S.Y.W.Y.` * * * * & , , H /./././././.2.,.,.,.,.,.,.,.,.,.3./././.(././.* , , * * * , * 2 e.K.K.R.R.!.(.5 * * * 3 ",
"4 , * X u 9.C.K.K.J.0Xk., * , * * * 3 *XtXtXtXtXtX6X&.&.&.&.&.&.&.&.&.&.&.6XrXtXtXtXtX .* * * * , , * y m M.K.R.Y.].'.8 * * * , ",
", * * X i g.C.H.`.K.(.e.- , * & , 3 c.tXtXtXtXtXtXp.&.&.&.&.&.&.&.&.&.&.&.u.tXtXtXtXtXrXb * * 1 , * * i w.{ K.'.R.+X'.8 * , , , ",
"3 , * * i 8.C.X.{ `.'.w.- * * * , Z rXtXtXtXtXtXrX;.&.&.&.&.&.&.&.&.&.&.&.&.-XtXtXtXtXtX[.* * * * & > t 8.J._ Y W._.!.5 % , * , ",
"4 * * X @ r J { S.F Q.9.- * > * , ;XtXtXtXtXtXtX.X*.&.&.&.&.&.&.&.&.&.&.&.&.u.tXtXtXtXtXtX+.* , , * * q 6 m o.W.V K.9.2 * , , , ",
"3 , * X ; R n `.+X`.b a , * * * b [.[.[.[.[.[.[.6.$.$.$.$.$.$.$.$.$.$.$.$.$.$._.[.[.[.[.[.F., , * , , i ' : L.>X].n Y 3 * * 3 , ",
"3 * * X i p n.o.+X7X$Xm * - - * b [.[.[.[.[.[.[.6.$.$.$.$.$.$.$.$.$.$.$.$.$.$.[.[.[.[.[.[.F.* & , * , i | A.o.Z.3X_.6 , * * , , ",
"3 * * * t { J.{ R $X@X) * , , * b [.[.[.[.[.[.[.6.$.$.$.$.$.$.$.$.$.$.$.$.$.$.[.[.[.[.[.[.D.* * , * - s 9.S.C.F W.Q.w.2 * * , * ",
"3 3 * X i v.C.W.' R [.( , * , * b [.[.[.[.[.[.[.6.$.$.$.$.$.$.$.$.$.$.$.$.$.-.[.[.[.[.[.[.D.* * * , - i 9.C.W.A.F o.C.5 * % , 3 ",
"3 , * % i f.C.K.].@X0 ( , , * * ! :X:X:X;X:X:X:Xi.:.:.:.:.:.:.:.:.:.:.:.:.:.:.XX:X:X;X:X:X*X4 * , , # s 8.B.K.].`.o.I 5 * , , * ",
"3 3 * X i [ m.C.H.].m.n = , * 8 4XtXtXtXtXtXrX6X*.&.&.&.&.&.&.&.*.*.&.&.&.&.*.i.tXtXtXtXtXtX/.* , , # t ] C.C.C.+XC.L < * , * 3 ",
"3 * * % i [ C.C.C.J.C.S * , * L.tXtXtXtXtXtXtXi.&.&.&.&.&.&.&.&.&.&.&.&.&.&.&.&.oXtXtXtXtXtXtXz.= * = t 8.C.C.M.B.C.E 6 * * , * ",
", 3 * % i | b.m.C.C.A.D , * ~ tXtXtXtXtXtXtXoX&.&.&.&.&.&.&.&.&.&.&.&.&.&.&.&.&.4.rXtXtXtXtXtXrXH * < $ ] b.B.A.m.b.E < * % , * ",
", 3 * X i q.v.v.b.A.h.D * * {.:X4X:X4X4X:X:Xy.%.%.%.%.%.%.%.%.%.%.%.%.%.%.%.%.%.%.x.:X:X4X:X4X:X}.* , ; E B.B.M.B.B.E < * * 3 * ",
"3 3 * X i J ] U ` S.q.S , * ).[.[.[.[.[.[.[.3.-.$.$.$.$.$.$.$.$.$.$.$.$.$.$.$.$.$.r.[.[.[.[.[.[.[.* & ; s E @.f.C.v.5.< * * , , ",
"3 * * X t f f f J U E p * , ).[.[.[.[.[.[.[.3.-.$.$.$.$.$.$.$.$.$.$.$.$.$.$.$.$.$.r.).[.[.[.[.[.'.* & ; f M 5.L J L a % % * % , ",
"3 3 5 C P C m P I P I | , * ).[.[.[.[.[.[.[.3.-.$.$.$.$.$.$.$.$.$.$.$.$.$.$.$.$.$.r.[.[.[.[.[.[.[.* * m p V V p k.XX%X@X5 % , , ",
"4 3 ..:X,X<X1X1X1X1X>XwX( * /.).).).).).).).3.<.<.<.,.,.,.,.,.,.,.,.,.,.,.,.,.,.,.r.).).).).).).).* 3 +X,X3X`.L.2X2X2X3X{.X * * ",
"3 * n w.B.V.H.C.H.J.Z.(.b z.tXtXtXtXtXtXtX-X&.&.&.&.&.&.&.&.&.&.&.&.&.&.*.&.&.&.&.4.rXtXtXtXtXtXtXn., c.V.J.w.{ K._.J.T./.X * * ",
"3 3 9 ] V.V.V.C.J.P J.F.A rXtXtXtXtXtXtXtX4.&.&.&.&.&.&.&.&.&.&.&.&.&.&.&.&.&.&.&.&.p.tXtXtXtXtXtXrX~ V.G.F c } m.W.J.T.c.* * * ",
"* 3 e M f y 0 0 0 - p | *XtXtXtXtXtXtXtX X&.&.&.&.&.&.&.&.&.&.&.&.&.&.&.&.&.&.&.&.&.*.-XtXtXtXtXtXtXrXU a - j z 0 n M 7.) * * * ",
"3 3 # q $ Q `.&XqXOXx f.tXtXtXtXtXtXtX6X=.&.&.&.&.&.&.&.&.&.&.&.&.&.&.&.&.&.&.&.&.&.&.4.tXtXtXtXtXtXtX*Xm.W.+X,XOXl.Z e ; 1 , * ",
"* N > . B m.F.V.).s.d.T.[.[.[.[.[.[.[.t.$.$.$.$.$.$.$.$.$.$.$.$.$.$.$.$.$.$.$.$.$.$.$.$.U.[.[.[.[.[.[.[.@.F.F.V.a.d.l.- l k & * ",
"* 7 x j p q.O.F.F.F.(.(.[.[.[.[.[.[.[.t.$.$.$.$.$.$.$.$.$.$.$.$.$.$.$.$.$.$.$.$.$.$.$.$.U.[.[.[.[.[.[.[.` D.V.F.l.l.c j h l & , ",
"* j x x : a R H.F.F.c.Y.[.[.[.[.[.[.[.t.$.$.$.$.$.$.$.$.$.$.$.$.$.$.$.$.$.$.$.$.$.$.$.$.U.[.[.[.[.[.[.[.a / J.G.A.B.Q x x x , * ",
"> k g * > l u R  .} k B.[.[.[.[.[.[.[.t.$.$.-.$.$.$.$.-.$.$.$.$.$.$.$.$.$.$.$.$.$.$.$.$.U.[.[.[.[.[.[.[.- t I E ' } z g h h j % ",
"g > j j g - V p e 9 c W W s.{ _ { G H F d d d d d d d d d d d d d d d d d d d d d d d d S S S Z S ^ Z W l = y r : l z j g g > * ",
"* * n H 2 ( N.f.b D ( D p 9.e.j.j.0.k.k.k.k.G ' j.g.[ | j.h.g.h.M.M.w.[ Q k.P.Z.' D T ) ' [ [ 9.j.k.[ G Z 0 G T - ' ( 5 ..2 , % ",
"v ( 2 V S < 3 , V < Z V q.g.O.| O.9.k.j.j. .D T g.#X~.2 ~.P.9.N.`.%X#X].V - XX%X%XC.B C.~.^.9.9.q.[ ' ' ' 5 D T 5 D = ^ 2 _ B % ",
"3 A * v 5 3 < , b 3 { < 0 9 G b 5 B ^ N.I.E.' V = S q.n ) I.P.N.v V A n , X | w.e.j.G F D F 5 G g.O.Y & 5 3 1 , , b 3 B * 3 < , ",
"* * 3 3 , , , % , , 2 , & , 8 1 , % 2 5 5 9 3 3 , , 2 1 3 v 9 v 2 , , % B v < 2 2 3 2 , , , , 2 9 9 5 * % , < * , % < , , 3 , , ",
"3 % * 3 < , , * 3 < , , < 3 , , < , , , 1 1 , 3 , , 1 , < , 3 , 3 < 3 < , , , , , , < 3 , , % , , , 1 , < , , , , , * , 3 3 3 3 ",
"* * * , 3 , , * * % % , * 3 , , , 3 , , * < 3 , , , < 3 3 , , % , % 3 , , , , , , , % , 3 , , , , < , , 3 3 % , , , % < , % , , "
};
