/* XPM */
static char *da3c34dcfbe94fccc62d7a37c24ad515l6wEsqzMDwJTYq03[] = {
/* columns rows colors chars-per-pixel */
"64 64 185 2 ",
"   c None",
".  c #E7760F",
"X  c #EB770F",
"o  c #EE790F",
"O  c #F07B0F",
"+  c #E57611",
"@  c #E97710",
"#  c #E47A14",
"$  c #EC7B11",
"%  c #E37C19",
"&  c #F07D11",
"*  c #DE7F20",
"=  c #E68316",
"-  c #EB8314",
";  c #EC8A17",
":  c #E3831B",
">  c #EC8319",
",  c #E58A1A",
"<  c #EA8C19",
"1  c #F18313",
"2  c #F28B15",
"3  c #F28518",
"4  c #F28B1D",
"5  c #E6931D",
"6  c #EC941C",
"7  c #EC9A1E",
"8  c #F39017",
"9  c #F49319",
"0  c #F59C1C",
"q  c #F6A31E",
"w  c #DF8926",
"e  c #DF8929",
"r  c #E38422",
"t  c #E68C24",
"y  c #ED8D25",
"u  c #E38D2A",
"i  c #F28E21",
"p  c #E59420",
"a  c #E79E24",
"s  c #EF9D23",
"d  c #E5912B",
"f  c #E9902B",
"g  c #E69A2D",
"h  c #F39225",
"j  c #F59921",
"k  c #F4962A",
"l  c #F59C2D",
"z  c #E29533",
"x  c #E59835",
"c  c #E99F36",
"v  c #E89D38",
"b  c #F29D31",
"n  c #EDA423",
"m  c #EEAC26",
"M  c #EAA52A",
"N  c #EEAD2C",
"B  c #F4A521",
"V  c #F3AD25",
"C  c #F8AC22",
"Z  c #F4A42D",
"A  c #F2B127",
"S  c #FAB425",
"D  c #FAB927",
"F  c #F2B529",
"G  c #F9B029",
"H  c #F5BB2A",
"J  c #FABD2A",
"K  c #E7A43A",
"L  c #E9A03B",
"P  c #F6A234",
"I  c #F7AB37",
"U  c #F8AF32",
"Y  c #F7A638",
"T  c #F6AC3C",
"R  c #F8AE3C",
"E  c #EDB031",
"W  c #ECB13A",
"Q  c #F9B335",
"!  c #F8B23E",
"~  c #F5BB3C",
"^  c #FBBD3B",
"/  c #F7C32E",
"(  c #FBC32B",
")  c #FCC92E",
"_  c #F7C135",
"`  c #FCC432",
"'  c #FCCE30",
"]  c #F7C83A",
"[  c #FBCA3F",
"{  c #FED231",
"}  c #FED331",
"|  c #FFD231",
" . c #FFD332",
".. c #FDD131",
"X. c #FED432",
"o. c #FFD432",
"O. c #FFD532",
"+. c #FFD434",
"@. c #FFD635",
"#. c #FFD432",
"$. c #FCD13E",
"%. c #FFD63C",
"&. c #FFD63D",
"*. c #FFD63E",
"=. c #FFD73F",
"-. c #FFD63B",
";. c #E6A340",
":. c #E7A541",
">. c #E7A642",
",. c #E7A541",
"<. c #EAA641",
"1. c #E9AC46",
"2. c #EDAC44",
"3. c #F5AE41",
"4. c #F8AF40",
"5. c #ECB54F",
"6. c #EEB44C",
"7. c #F6B242",
"8. c #F8B444",
"9. c #F1BA40",
"0. c #F0B945",
"q. c #F2B74C",
"w. c #F9B748",
"e. c #F0B94F",
"r. c #F9BB4B",
"t. c #F2BD53",
"y. c #F9BF51",
"u. c #F5C542",
"i. c #FCC744",
"p. c #FCCB43",
"a. c #F8C749",
"s. c #F5C84D",
"d. c #FCCC4C",
"f. c #FFD740",
"g. c #FFD642",
"h. c #FFD844",
"j. c #FDD54A",
"k. c #FFDA4D",
"l. c #FFDA4B",
"z. c #F3C256",
"x. c #FBC453",
"c. c #F6C850",
"v. c #FCCE52",
"b. c #F3C65C",
"n. c #F5C75A",
"m. c #FBC758",
"M. c #F5CB5E",
"N. c #F6CB5D",
"B. c #FCCD5C",
"V. c #FDD155",
"C. c #FFDA50",
"Z. c #FFDB50",
"A. c #FFDB54",
"S. c #FFDB55",
"D. c #FFDB54",
"F. c #F9D25E",
"G. c #FCD35E",
"H. c #FFDE5E",
"J. c #FFDC5D",
"K. c #F5CB60",
"L. c #F5CC60",
"P. c #F7D265",
"I. c #FCD464",
"U. c #FDDC62",
"Y. c #FFDE63",
"T. c #FFDF64",
"R. c #FFDF65",
"E. c #FFDF67",
"W. c #FFDE64",
"Q. c #FBDA6B",
"!. c #FDDD6D",
"~. c #FDDE6E",
"^. c #FEDD6C",
"/. c #FFE067",
"(. c #FFE065",
"). c #FFE06D",
"_. c #FFE16E",
"`. c #FFE16F",
"'. c #FFE06F",
"]. c #FFE16D",
"[. c #FFE170",
"{. c #FEE170",
"}. c #FFE270",
"|. c #FFE271",
" X c #FFE170",
/* pixels */
"                                                  o.o.o.o.o.o.o.o.o.o.o.o.o.o.                                                  ",
"                                            o.o.o.o.o.o.o.o.o.o.o.o.o.o.o.o.o.o.o.o.                                            ",
"                                        o.o.o.o.o.o.o.o.o.o.o.o.o.o.o.o.o.o.o.o.o.o.o.o.                                        ",
"                                    o.o.o.o.o.o.o.o.o.o.o.o.o.o.o.o.o.o.o.o.o.o.o.o.o.o.o.o.                                    ",
"                                f.+.o.o.o.o.o.o.o.o.o.....................o.o.o.o.o.o.o.o.o.o.o.                                ",
"                            [.R.S.*.+.o.o.o.o.o...' / H F A m m m m A H H / ' ..o.o.o.o.o.o.o.o.o.o.                            ",
"                          [.[.).R.S.f.+.o.../ H m n 7 5 , , = = = < < < 6 7 n A H ) ..o.o.o.o.o.o.o.o.                          ",
"                      [.[.[.[.[.)./.S.$./ F n 5 , = + + + $ - ; ; - @ @ @ $ - < 7 B F / ' o.o.o.o.o.o.o.o.                      ",
"                    [.[.[.[.[.[.[.!.F.9.a , # + + X o o & 2 q S S 0 1 o O o o $ $ - < B H ) ..o.o.o.o.o.o.o.                    ",
"                  [.[.[.[.[.[.[.Q.b.>.w # + @ o o o O O & 0 J ..) V < o O O O O o $ $ - < B J ' o.o.o.o.o.o.o.                  ",
"                R.).[.[.[.[.).P.5.z : # @ o o O O O O O & 0 ( o...A < X O O O O O O O o $ ; 0 S ) ..o.o.o.o.o.o.                ",
"              *.C.R.).[.[.!.L.1.u % . o O O O O O O O O & 0 ( o...V < X O O O O O O O O O o - 9 C / ..o.o.o.o.o.o.              ",
"              *.*.C.R.).!.K.>.r + X o O O O O O O O O O & 0 ( o...A < X O O O O O O O O O O O & 2 B ( ..o.o.o.o.o.              ",
"            H.k.*.*.C.Y.M.;.* + o O O O O O O O O O O O 1 0 ( o...F 6 ; 1 1 1 1 & & O O O O O O & 2 B ( ..o.o.o.o.o.            ",
"          [.).Y.C.*.*.u.K * + o O O O O O O O O O & 3 9 0 S ) o.../ H S S C C q 0 9 1 & O O O O O & 2 C ( ..o.o.o.o.o.          ",
"          [.[.).R.C.] M : + o O O O O O O O O & 4 P ! ^ ` ) ..o.o...' ' ' ) ) ) ( V ; $ O O O O O O & 2 C ) o.o.o.o.o.          ",
"        [.[.[.[.).G.W , + o O O O O O O O O 1 k 7.m.I.J.l.-.o.o.o.o.o.o.o.o.o.@...H < @ O O O O O O O & 9 S ' o.o.o.o.o.        ",
"        ).[.[.[.!.b.z # X O O O O O O O O 1 h r.I.[.[.).H.l.-.o.o.o.o.o.o.o.o.o...A , @ O O O O O O O O 1 0 ( ..o.o.o.o.        ",
"      k.Y.).[.[.I.>.: + o O O O O O O O & h w.I.[.[.[.[.).H.j.+.' ' ' ' ......o.' m = o O O O O O O O O O 2 C ) o.o.o.o.o.      ",
"      -.l.H.).Q.t.e # o O O O O O O O O 3 Y I.).[.[.[.[.Q.n.0.N n n n m V F H / / a # o O O O O O O O O O & 9 J ..o.o.o.o.      ",
"    o.o.-.l.H.N.>.% @ O O O O O O O O O h r.!.[.[.[.!.P.5.v u , - - - - < < 6 s n , $ o O O O O O O O O O O 1 B ( o.o.o.o.o.    ",
"    o.o.o.-.j.0.u + o O O O O O O O O & l m.[.[.[.[.Q.t.u # @ X X X X X o @ @ $ - # $ o O O O O O O O O O O & 9 D ..o.o.o.o.    ",
"  o.o.o.o.o.' M % @ o O O O O O O O O 1 P B.[.[.[.[.I.<.% X O O O O O O O O O o o o o O O O O O O O O O O O O 1 C ) o.o.o.o.o.  ",
"  o.o.o.o.o.H 5 + o O O O O O O O O O 1 Z v.).[.[.[.I.<.> o O O O O O O O O O O O O O O O O O O O O O O O O O & 0 ( o.o.o.o.o.  ",
"  o.o.o.o...m , . o O O O O O O O O O 1 B [ J.).[.[.Q.t.y $ O O O O O O O O O O O O O O O O O O O O O O O O O O 9 S ..o.o.o.o.  ",
"o.o.o.o.o.' n = X o O O O O O O O O O & 0 ` h.J.E.[.!.I.3.h 1 & O O O O O O O O O O O O O O O O O O O O O O O O 2 C ' o.o.o.o.o.",
"o.o.o.o.o./ 7 + o O O O O O O O O O O & 9 J -.h.J.E.[.!.I.r.P i 1 & O O O O O O O O O O O O O O O O O O O O O O 1 q ) o.o.o.o.o.",
"o.o.o.o...H 5 + o O O O O O O O O O O O 4 Q g.-.h.S.E.[.).Q.B.r.P h 3 & O O O O O O O O O O O O O O O O O O O O & 0 ( ..o.o.o.o.",
"o.o.o.o...F , + O O O O O O O O O O O O 1 l a.h.*.f.S.E.).[.!.Q.I.x.3.l 4 & O O O O O O O O O O O O O O O O O O & 9 J ..o.o.o.o.",
"o.o.o.o...A , + O O O O O O O O O O O O & 4 R d.h.*.f.S.R.).[.[.[.E.I.x.7.l 4 & O O O O O O O O O O O O O O O O O 9 D ..o.o.o.o.",
"o.o.o.o...m , X O O O O O O O O O O O O O & h 8.d.h.*.h.S.R.).[.[.[.[.!.I.x.T h 1 O O O O O O O O O O O O O O O O 8 S ..o.o.o.o.",
"o.o.o.o...m , X O O O O O O O O O O O O O O & h R a.g.-.f.S.R.).[.[.[.[.[.!.I.r.l 1 & O O O O O O O O O O O O O O 2 S ..o.o.o.o.",
"o.o.o.o...m , X O O O O O O O O O O O O O O O & 4 b ~ [ +.*.C.R.).[.[.[.[.[.).Q.x.b 1 O O O O O O O O O O O O O O 2 S ..o.o.o.o.",
"o.o.o.o...m < X O O O O O O O O O O O O O O O O & > h Z F / $.C./.).[.[.[.[.[.[.Q.y.k 1 O O O O O O O O O O O O O 8 S ..o.o.o.o.",
"o.o.o.o...A < X O O O O O O O O O O O O O O O O O O $ ; 6 0 V _ j.Y.).[.[.[.[.[.[.I.7.i o O O O O O O O O O O O O 9 D ..o.o.o.o.",
"o.o.o.o...F < @ O O O O O O O O O O O O O O O O O O O o o $ ; 7 F a.I.!.[.[.[.[.[.).n.b $ O O O O O O O O O O O & 9 J ..o.o.o.o.",
"o.o.o.o...H 6 @ O O O O O O O O O O O O O O O O O O O O O o $ $ ; s 7.F.!.[.[.[.[.[.I.3.> o O O O O O O O O O O & 0 ( ..o.o.o.o.",
"o.o.o.o.o./ 7 $ o O O O O O O O O O O O O O O O O O O O O O O O $ - i T B.!.[.[.[.[.!.q.y o O O O O O O O O O O 1 q ) o.o.o.o.o.",
"o.o.o.o.o.' n - o O O O O O O O O O O O O O O O O O O O O O O O O o $ 4 ! G.).[.[.[.!.t.f $ o O O O O O O O O O 2 C ' o.o.o.o.o.",
"  o.o.o.o...A < $ O O O O O O O O O O O O O O O O O O O O O O O O O O & j i.H.).[.[.[.t.f $ o O O O O O O O O O 9 S ..o.o.o.o.  ",
"  o.o.o.o.o.H 7 $ o O O O O O O O O O O O O O O O O O O O O O O O & O & 2 J j.H.).[.[.t.f @ o O O O O O O O O & 0 ( o.o.o.o.o.  ",
"  o.o.o.o.o.) B - $ O O O O O O O O O O O O O O O O O O O O O O O O O & 9 ` $.l.H.).!.e.t o o O O O O O O O O 1 C ) o.o.o.o.o.  ",
"    o.o.o.o...F < $ O O O O O O O O O O 1 2 2 1 & & O O O O O O O & 1 i R d.f.-.h.H.I.2.r o o O O O O O O O & 9 J ..o.o.o.o.    ",
"    o.o.o.o.o./ B - o O O O O O O O O O 2 B S B 0 9 9 2 2 2 4 4 h l P 8.B.W.S.h.-.l.s.c % o O O O O O O O O 3 I p.*.o.o.o.o.    ",
"      o.o.o.o.' H < $ O O O O O O O O & 0 J ' ) ( J S S C C G Q r.x.B.W.).[.).S.f.$.E t @ O O O O O O O O & h x.J.C.*.+.o.      ",
"      o.o.o.o.o.) B ; o O O O O O O O 1 q ( o.o.o.........' +.f.J.E.[.[.[.[.[.).S.~ p # o O O O O O O O O 4 4.I.).R.C.*.+.      ",
"        o.o.o.o...J 0 - O O O O O O O 2 C ' o.o.o.o.o.o.o.o.o.+.h.J.).[.[.[.[.Q.z.g % X O O O O O O O O 1 P B.!.[.).R.C.        ",
"        o.o.o.o.o.' S 9 & O O O O O O 2 S ..o.o.o.o.o.o.o.o.o.o.+.h.J.).).Q.M.5.x : @ o O O O O O O O & k r.Q.[.[.[.).Y.        ",
"          o.o.o.o.o.) C 2 & O O O O O 2 B H / / ) ' ' ' ......o.o.+.p.c.z.6.L u % @ o O O O O O O O & h 8.I.[.[.[.).).          ",
"          o.o.o.o.o.../ B 2 & O O O O & ; 6 7 n m V A F H / ' o.../ m g d r # @ o O O O O O O O O & 4 3.G.).[.[.).).Y.          ",
"            o.o.o.o.o...( B 2 & O O O O $ $ $ $ - - = = , n ( o...A , + @ $ o o O O O O O O O O O 3 T B.!.[.[.[.).Y.            ",
"              o.o.o.o.o...( C 2 & O O O O o o o o $ $ $ $ 0 J o...V < X o O O O O O O O O O O & 2 C p.Y.).[.[.).Y.              ",
"              o.o.o.o.o.o...( C 9 1 O O O O O O O O O O & 0 J o...V < X O O O O O O O O O O 1 h U ` *.C.R.).).R.H.              ",
"                o.o.o.o.o.o...) S 0 2 & O O O O O O O O & 0 ( o...A < X O O O O O O O O & 4 P r.V.l.-.f.C.R.).Y.                ",
"                  o.o.o.o.o.o.o.' ( C 9 1 & O O O O O O & 0 J ' ) m < X O O O O O O & 3 k 4.B.Q.).Y.l.-.*.k.Y.                  ",
"                    o.o.o.o.o.o.o...) J B 9 1 & O O O O & 2 q m n 5 = X O O O O & 1 9 I x.I.!.[.[.).Y.k.*.-.                    ",
"                      o.o.o.o.o.o.o.o...( D C 0 9 2 1 & & 1 - - - # @ $ & 1 2 9 0 C J p.J.).[.[.[.[.).H.l.                      ",
"                          o.o.o.o.o.o.o.o...) ( S C q 0 9 9 2 ; ; 2 9 9 0 q C S ( ) ..*.k.Y.).[.).).).                          ",
"                            o.o.o.o.o.o.o.o.o.o...' ) ( J D S S S S D J ( ) ' ..o.o.o.o.-.k.Y.).).).                            ",
"                                o.o.o.o.o.o.o.o.o.o.o.....................o.o.o.o.o.o.o.o.-.k.Y.                                ",
"                                    o.o.o.o.o.o.o.o.o.o.o.o.o.o.o.o.o.o.o.o.o.o.o.o.o.o.o.o.                                    ",
"                                        o.o.o.o.o.o.o.o.o.o.o.o.o.o.o.o.o.o.o.o.o.o.o.o.                                        ",
"                                            o.o.o.o.o.o.o.o.o.o.o.o.o.o.o.o.o.o.o.o.                                            ",
"                                                  o.o.o.o.o.o.o.o.o.o.o.o.o.o.                                                  "
};
