/* XPM */
static char *_2794dacc3bc44a3d65056a061c41bc0S4VmMqomZTGrgSkp[] = {
/* columns rows colors chars-per-pixel */
"64 64 254 2 ",
"   c black",
".  c #190905",
"X  c #1C1C00",
"o  c #2A0B03",
"O  c #330200",
"+  c #350B00",
"@  c #3C0C00",
"#  c #390906",
"$  c #2B1300",
"%  c #281605",
"&  c #251B00",
"*  c #331300",
"=  c #3C1300",
"-  c #391707",
";  c #351C00",
":  c #2A0D15",
">  c #370D16",
",  c #2A1314",
"<  c #361519",
"1  c #252203",
"2  c #2B2300",
"3  c #382500",
"4  c #302118",
"5  c #1D1A27",
"6  c #261A26",
"7  c #2D2022",
"8  c #232535",
"9  c #282936",
"0  c #2D2F3A",
"q  c #332C36",
"w  c #382F34",
"e  c #34333B",
"r  c #420B01",
"t  c #4A0C00",
"y  c #441300",
"u  c #491901",
"i  c #452300",
"p  c #533309",
"a  c #482614",
"s  c #673016",
"d  c #57342B",
"f  c #643A2A",
"g  c #6C3A34",
"h  c #544600",
"j  c #6F4A0E",
"k  c #5B553F",
"l  c #774529",
"z  c #75592A",
"x  c #674939",
"c  c #7A4938",
"v  c #7A5635",
"b  c #343641",
"n  c #3F4045",
"m  c #794C41",
"M  c #775846",
"N  c #7B756B",
"B  c #8E5809",
"V  c #934F19",
"C  c #AC5417",
"Z  c #B05315",
"A  c #B65A17",
"S  c #946412",
"D  c #B2750F",
"F  c #A66518",
"G  c #B96819",
"H  c #954B22",
"J  c #955B2D",
"K  c #854C39",
"L  c #904C32",
"P  c #8B5234",
"I  c #8A5737",
"U  c #965837",
"Y  c #935C3D",
"T  c #A54D22",
"R  c #AB5926",
"E  c #A95A39",
"W  c #B65837",
"Q  c #936830",
"!  c #98663A",
"~  c #A86725",
"^  c #B86A28",
"/  c #AC722A",
"(  c #B3782B",
")  c #A66737",
"_  c #B76637",
"`  c #A67539",
"'  c #C0511C",
"]  c #C86D1A",
"[  c #C6582F",
"{  c #C16826",
"}  c #C87727",
"|  c #C26733",
" . c #C47839",
".. c #D47C31",
"X. c #8A574F",
"o. c #965B47",
"O. c #A95849",
"+. c #B15B47",
"@. c #86674C",
"#. c #986948",
"$. c #8C6855",
"%. c #957554",
"&. c #A46645",
"*. c #B86642",
"=. c #A6774A",
"-. c #B97E43",
";. c #AA7B55",
":. c #917867",
">. c #D37340",
",. c #B88E18",
"<. c #B78A35",
"1. c #B6A725",
"2. c #E5B419",
"3. c #CE8D2E",
"4. c #DA9528",
"5. c #C9843A",
"6. c #D6893A",
"7. c #DA9736",
"8. c #E58A2D",
"9. c #E7952C",
"0. c #E38D3A",
"q. c #E59737",
"w. c #DCA829",
"e. c #C5A93C",
"r. c #D8A738",
"t. c #E9A62D",
"y. c #E8BA28",
"u. c #F3B628",
"i. c #E6A738",
"p. c #F2AB34",
"a. c #E9B538",
"s. c #F5B936",
"d. c yellow",
"f. c #DECC39",
"g. c #E8C92B",
"h. c #EAC736",
"j. c #F0CF34",
"k. c #F5CA38",
"l. c #9E8450",
"z. c #B68645",
"x. c #B28F50",
"c. c #90846E",
"v. c #B1916F",
"b. c #B8A270",
"n. c #BCB275",
"m. c #C48740",
"M. c #D88845",
"N. c #C79747",
"B. c #D89748",
"V. c #C59C57",
"C. c #DA9B57",
"Z. c #E4984A",
"A. c #E59253",
"S. c #DDA849",
"D. c #D7B24D",
"F. c #C9A35B",
"G. c #D8A455",
"H. c #E8A646",
"J. c #F7A54C",
"K. c #E5B848",
"L. c #F5B849",
"P. c #E6AB57",
"I. c #E4B758",
"U. c #F6B856",
"Y. c #C99D6C",
"T. c #C9AA67",
"R. c #D5A968",
"E. c #D9B569",
"W. c #CDAC79",
"Q. c #D6B574",
"!. c #E1B666",
"~. c #E9B66B",
"^. c #DAC654",
"/. c #E9C748",
"(. c #F8C747",
"). c #EBD949",
"_. c #F8D74B",
"`. c #E6C85A",
"'. c #F9C855",
"]. c #EBD956",
"[. c #F6D959",
"{. c #F3E24C",
"}. c #F8E556",
"|. c #DCC964",
" X c #DAD263",
".X c #DAC479",
"XX c #E8C767",
"oX c #F5C766",
"OX c #EAD568",
"+X c #F7D969",
"@X c #FBDD6B",
"#X c #EAC778",
"$X c #F8CB77",
"%X c #E8D575",
"&X c #EBDC7B",
"*X c #F6DA76",
"=X c #FFDB74",
"-X c #EFE069",
";X c #F7E866",
":X c #F5E46D",
">X c #FCE46C",
",X c #FBF169",
"<X c #F9E978",
"1X c #FBF576",
"2X c #9D9D96",
"3X c #AFA899",
"4X c #9E9FA0",
"5X c #D1B98D",
"6X c #E9BE91",
"7X c #D6CE91",
"8X c #E6CA88",
"9X c #F5CD87",
"0X c #E9DA83",
"qX c #F6D987",
"wX c #E7CB95",
"eX c #E9D797",
"rX c #F8D897",
"tX c #ECE485",
"yX c #F8E786",
"uX c #FCEB89",
"iX c #FEF88A",
"pX c #F9EB95",
"aX c #FDF797",
"sX c #FFFD9B",
"dX c #D8D4A6",
"fX c #CDCDB7",
"gX c #FBDBA5",
"hX c #E6DFB5",
"jX c #EAE8A7",
"kX c #F9E9A6",
"lX c #FFF5A6",
"zX c #FFFCA3",
"xX c #FFFCAB",
"cX c #FEF4B4",
"vX c #FFFDB4",
"bX c #F9F2B8",
"nX c #FFFEBB",
"mX c #BBBBC0",
"MX c #CACBCC",
"NX c #DCDCD6",
"BX c #FFEDC3",
"VX c #FFF4C4",
"CX c #FFFCC4",
"ZX c #FFF3CB",
"AX c #FEFCCD",
"SX c #EAEAD0",
"DX c #FFF4D4",
"FX c #FFFBD3",
"GX c #FFF4DD",
"HX c #FFFDDB",
"JX c #E9E9E8",
"KX c #FFFCE3",
"LX c #FEF9E9",
"PX c #FFFCF6",
/* pixels */
"8 8 8 8 8 8 8 8 8 8 8 8 8 8 8 8 8 8 8 8 8 8 8 8 8 8 8 8 8 8 8 8 8 8 8 8 8 8 8 8 8 8 8 8 8 8 8 8 8 8 8 8 8 8 8 8 8 8 8 8 8 8 8 8 ",
"8 8 8 8 8 8 8 8 8 8 8 8 8 8 8 8 8 8 8 8 8 8 8 8 8 8 8 8 8 8 8 8 8 8 8 8 8 8 8 8 8 8 8 8 8 8 8 8 8 8 8 8 8 8 8 8 8 8 8 8 8 8 8 8 ",
"8 8 8 8 8 8 8 8 8 8 8 8 8 8 8 8 8 8 8 8 8 8 8 8 8 8 8 8 8 8 8 8 8 8 8 8 8 8 8 8 8 8 8 8 8 8 8 8 8 8 8 8 8 8 8 8 8 8 8 8 8 8 8 8 ",
"8 8 8 8 8 8 8 8 8 8 8 8 8 8 8 8 8 8 8 8 8 8 8 8 8 8 8 8 8 8 8 8 8 8 8 8 8 8 8 8 8 8 8 8 8 8 8 8 8 8 8 8 8 8 8 8 8 8 8 8 8 8 8 8 ",
"8 8 8 8 8 8 8 8 8 8 8 8 8 8 8 8 8 8 8 8 8 8 8 8 8 8 8 8 8 8 8 8 8 8 8 8 8 8 8 8 8 8 8 8 8 8 8 8 8 8 8 8 8 8 8 8 8 8 8 8 8 8 8 8 ",
"8 8 8 8 8 8 8 8 8 8 8 8 8 8 8 8 8 8 8 8 8 8 8 8 8 8 8 8 8 8 8 8 8 8 8 8 8 8 8 8 8 8 8 8 8 8 8 8 8 8 8 8 8 8 8 8 8 8 8 8 8 8 8 8 ",
"8 8 8 8 8 8 8 8 8 8 8 8 8 8 8 8 8 8 8 8 8 8 8 8 8 8 8 8 8 8 8 8 8 8 8 8 8 8 8 8 8 8 8 8 8 8 8 8 8 8 8 8 8 8 8 8 8 8 8 8 8 8 8 8 ",
"8 8 8 8 8 8 8 8 8 8 8 8 8 8 8 8 8 8 8 8 8 8 8 8 8 8 8 8 8 8 8 8 8 8 8 8 8 8 8 8 8 8 8 8 8 8 8 8 8 8 8 8 8 8 8 8 8 8 8 8 8 8 8 8 ",
"8 8 8 8 8 8 8 8 8 8 8 8 8 8 8 8 8 8 8 8 8 8 8 8 8 8 8 8 8 8 8 8 8 8 8 8 8 8 8 8 8 8 8 8 8 8 8 8 8 8 8 8 8 8 8 8 8 8 8 8 8 8 8 8 ",
"8 8 8 8 8 8 8 8 8 8 8 8 8 8 8 8 8 8 8 8 8 8 8 8 8 8 8 8 8 8 8 8 8 8 8 8 8 8 8 8 8 8 8 8 8 8 8 8 8 8 8 8 8 8 8 8 8 8 8 8 8 8 8 8 ",
"8 8 8 8 8 8 8 8 8 8 8 8 8 8 8 8 8 8 8 8 8 8 8 8 8 8 8 8 8 8 8 8 8 8 8 8 8 8 8 8 8 8 8 8 8 8 8 8 8 8 8 8 8 8 8 8 8 8 8 8 8 8 8 8 ",
"8 8 8 8 8 8 8 8 8 8 8 8 8 8 8 8 8 8 8 8 8 8 8 8 8 8 8 8 8 8 8 8 8 8 8 8 8 8 8 8 8 8 8 8 8 8 8 8 8 8 8 8 8 8 8 8 8 8 8 8 8 8 8 8 ",
"8 8 8 8 8 8 8 8 8 8 8 8 8 8 8 8 8 8 8 8 8 8 8 8 8 8 8 8 8 0 4XNXJXJXJXmXb 8 8 8 8 8 8 8 8 8 8 8 8 8 8 8 8 8 8 8 8 8 8 8 8 8 8 8 ",
"8 8 8 8 8 8 8 8 8 8 8 8 8 8 8 8 8 8 8 8 8 8 8 8 8 8 b mXSXAXCXCXAXVXHXDXHXJXNX2Xe 8 8 8 8 8 8 8 8 8 8 8 8 8 8 8 8 8 8 8 8 8 8 8 ",
"8 8 8 8 8 8 8 8 8 8 8 8 8 8 8 8 8 8 8 8 8 8 8 8 e MXFXnXvX0XOX*X+X:XOXOX&XyXkXCXAXNX2X0 8 8 8 8 8 8 8 8 8 8 8 8 8 8 8 8 8 8 8 8 ",
"8 8 8 8 8 8 8 8 8 8 8 8 8 8 8 8 8 8 8 8 8 9 mXJXAXeXeXrX0XqXyX=X<X=X@X=X=X$XqX9X8XvXeXSX2X9 8 8 8 8 8 8 8 8 8 8 8 8 8 8 8 8 8 8 ",
"8 8 8 8 8 8 8 8 8 8 8 8 8 8 8 8 8 8 8 8 9 7XnXlX*X$XVX;.x.;.! Y I I P J &.=.;.gX$XoXzXXXXXdX0 8 8 8 8 8 8 8 8 8 8 8 8 8 8 8 8 8 ",
"8 8 8 8 8 8 8 8 8 8 8 8 8 8 8 8 8 8 8 0 7XtXqXrXyXE.j y + y @ + + @ r @ r @ # l ~ yX#X$X`.XXdX0 8 8 8 8 8 8 8 8 8 8 8 8 8 8 8 8 ",
"8 8 8 8 8 8 8 8 8 8 8 8 8 8 8 8 8 8 e eXtXtXBXl l * ; ; <.N.R.R.Q.Q.R.F.N.F.i * * p #.bXXX`.`.7X9 8 8 8 8 8 8 8 8 8 8 8 8 8 8 8 ",
"8 8 8 8 8 8 8 8 8 8 8 8 8 8 8 8 8 0 jX&X0XnXc O = v.n.eX%XuXsXzXsXaXsXsXsXXXeXb.%.+ @ Y cXXX/.`.n.8 8 8 8 8 8 8 8 8 8 8 8 8 8 8 ",
"8 8 8 8 8 8 8 8 8 8 8 8 8 8 8 8 e eX&X<XQ.3 $ p x..XCXCXvXsXuX<X1X,X;X<XuXxXxXvX.XT.= O K VX`./.XX%.8 8 8 8 8 8 8 8 8 8 8 8 8 8 ",
"8 8 8 8 8 8 8 8 8 8 8 8 8 8 8 0 hX0X*XQ.; $ 5Xn.tXvXCXjXaXaXyXyX<X1X<X<XtXyXyXyXsXzXQ.Y r P lX`.'.oXn 8 8 8 8 8 8 8 8 8 8 8 8 8 ",
"8 8 8 8 8 8 8 8 8 8 8 8 8 8 8 fX&XOXCXp $ 7XDXHXAXkXxXuX<X<XaXjXjXbXjXjXpX<X,X,X1.<XpXE.=.+ Q #X'.'.` 9 8 8 8 8 8 8 8 8 8 8 8 8 ",
"8 8 8 8 8 8 8 8 8 8 8 8 8 8 n cX%XaXs @ 5XGXLXLXFXnXuX<XiXtX1 2 2 & 2 2 3 yX1X,X,X>X<XyXV.u = bX'.L.( =.9 8 8 8 8 8 8 8 8 8 8 8 ",
"8 8 8 8 8 8 8 8 8 8 8 8 8 e jX&XvXQ @ W.GXPXPXPXvXuXuXpXW.& HXFXCXvXnXCXd.; uX<X;X:XyXyXyXz.@ P lXI.H.G.@.8 8 8 8 8 8 8 8 8 8 8 ",
"8 8 8 8 8 8 8 8 8 8 8 8 8 fX XOXl.= j W.KXLXPXDXuX:XyXh & KXKX5X5X8XQ.wXGXAX$ yX<X:XiX<X+XN.U r ` $Xa.i.z.q 8 8 8 8 8 8 8 8 8 8 ",
"8 8 8 8 8 8 8 8 8 8 8 8 8 SXOXOXl.= z.9XFXHXbX0X@X>XlX& FXHXv.= + * o z #XzXE.; @X}.[.[.}.+X` r #.9X/.w.5.x 8 8 8 8 8 8 8 8 8 8 ",
"8 8 8 8 8 8 8 8 8 8 8 8 b CX+XaXj o Q.cXCXnXiX;X}.>X% hXAXdX%.@ W.T.Q.; x.qXQ.= @X}.].}.].@X( t y cXK.w...! 8 8 8 8 8 8 8 8 8 8 ",
"8 8 8 8 8 8 8 8 8 8 8 8 MXbXXXpX* v.wXcXxX X].}.{.[.; eXnX8X* Q.=X[.+X%X$ b.v ; :X}.).]._.'.U.~ + BX|.r.0._ q 8 8 8 8 8 8 8 8 8 ",
"8 8 8 8 8 8 8 8 8 8 8 b GXgX$XS + W.cXlXyX:X].}.}.-X; 8XlXqX$ Q.@X[.].*Xh * i %X].).).}._.[.i./ + @.vXD.0. .w 8 8 8 8 8 8 8 8 8 ",
"8 8 8 8 8 8 8 8 8 8 8 N FXrX$XB = T.aX*XtX&X-X].).>X* 6X=X*XCX2 eX%XtX&XOX+X'.'.k._.1X,.1X'.L./ @ M VXT.7.} x 8 8 8 8 8 8 8 8 8 ",
"8 8 8 8 8 8 8 8 8 8 8 c.AXrX9XB = T.<X>X<XsXiX+X].].+ ` 7.+XlXcX& 2 2 2 &X+X[._.k.h././.(.(.'./ a o HXT.7.3.v 8 8 8 8 8 8 8 8 8 ",
"8 8 8 8 8 8 8 8 8 8 8 :.ZXkX$XB + Q.>X;X>XOX+XiX).[.XXy ~ B.I.zXxXnXAXk & & %X].j.j.h.(.a.(.'.F f o DXF.4.3.I 8 8 8 8 8 8 8 8 8 ",
"8 8 8 8 8 8 8 8 8 8 8 :.AX9XqXS y x.>X}.[.[.@X/._./.'.r.t / <.I.9X8X7XHXLXKX& |.).g.j.y.s.s.L.( f , DXV.4.6.I 8 8 8 8 8 8 8 8 8 ",
"8 8 8 8 8 8 8 8 8 8 8 $.nXXX=XB + x.[._._._.(._.j.j.k.(.<.y @ #.;.x.E.#XnXCXKX1 ^.j.g.g.u.s.8._ f , DXR.H.0.o.8 8 8 8 8 8 8 8 8 ",
"8 8 8 8 8 8 8 8 8 8 8 @.E.OX=XS = z.@X_.(.k.(.h.g.g.j.(.XXE.J y @ u = <.XXqXKXX OXy.y.2.u.s.] W d . GXY.Z.{ o.8 8 8 8 8 8 8 8 8 ",
"8 8 8 8 8 8 8 8 8 8 8 @.I.'.'.F t =.r.h.s.s.k.g.g.f./.`.$X$XK.K.3.j p ; 3.$XBX3 `.s.y.y.y.u.G *.< 7 FXz.J.^ K 8 8 8 8 8 8 8 8 8 ",
"8 8 8 8 8 8 8 8 8 8 8 M oX(.'.N.r I D.(.(.L.(.h.g.f.`.; = B /.k.h.`.5X$ ( oXrX; K.s.a.a.y.(.{ E < 7 VX<.0._ x 8 8 8 8 8 8 8 8 8 ",
"8 8 8 8 8 8 8 8 8 8 8 w ~ L.'.lX* d S L.uX,.>XiXf.f.$ 5XVX3 e.h.j./..X* D [.#Xi w.y.K.aXuXG | &.: PXE.3.0.R 8 8 8 8 8 8 8 8 8 8 ",
"8 8 8 8 8 8 8 8 8 8 8 8 J H.L.lX% , ` U.U.L.K./.h./.* W.gXnX; OX`.^.8X* [.L.G.y a.w.K.S.Z. .E f < GXN.4.} U 8 8 8 8 8 8 8 8 8 8 ",
"8 8 8 8 8 8 8 8 8 8 8 8 M M.L.!.LX, P ~ U.i.i.s.a.K.@ J P.~.nX$ $ . $ CXU.q.V t r.a.oXzX| _ O.r x VX7.9.^ x 8 8 8 8 8 8 8 8 8 8 ",
"8 8 8 8 8 8 8 8 8 8 8 8 8 =.H.I.FX4 = &.5.q.t.p.t.a.P.t F m.5XGXGXKXKXW.( F t  .H.r.P.~ ^ _ c # ZXF.0.0.) 8 8 8 8 8 8 8 8 8 8 8 ",
"8 8 8 8 8 8 8 8 8 8 8 8 8 x P.S.T.AXo $ J m.7.4.s.s.p.Z.y = $.%.;.z.#.#.= = ( i.a.@XA [ | J o 3XkXB.} A.x 8 8 8 8 8 8 8 8 8 8 8 ",
"8 8 8 8 8 8 8 8 8 8 8 8 8 8 Q S.I..XHX4 O &./ D D p.p.i.!.=.+ @ R.-.y + I R.r.a.i.4.' [ E @ % KX!.B.V x 8 8 8 8 8 8 8 8 8 8 8 8 ",
"8 8 8 8 8 8 8 8 8 8 8 8 8 8 w m.r.D.nX1 O > H { { ] '.i.i.S.G.u u u O G.7.r.r.'.q.A [ W K , % ZXN.5.v 8 8 8 8 8 8 8 8 8 8 8 8 8 ",
"8 8 8 8 8 8 8 8 8 8 8 8 8 8 8 ! i.a.E.AX. > s *.W { U.L.t.t.H.S.N.C.M.7.9.p.i.$XA Z [ +.# %   Y.M./ 8 8 8 8 8 8 8 8 8 8 8 8 8 8 ",
"8 8 8 8 8 8 8 8 8 8 8 8 8 8 8 x ^ J.H.E.FX. % a O.W | A q.q.q.q.i.7.q.9.9.8.A | W E X.# 1   G.6.M.v 8 8 8 8 8 8 8 8 8 8 8 8 8 8 ",
"8 8 8 8 8 8 8 8 8 8 8 8 8 8 8 8 P C H.P.R.AXx - t U E W ^ G { } } 3.} G G R W O.L @ o a   V.M.6.I 8 8 8 8 8 8 8 8 8 8 8 8 8 8 8 ",
"8 8 8 8 8 8 8 8 8 8 8 8 8 8 8 8 8 I ) ~.P.G.nXAXKXo > g o.U U ) o.&.R ) U o.X.> , $   vXN.B.M.Y 8 8 8 8 8 8 8 8 8 8 8 8 8 8 8 8 ",
"8 8 8 8 8 8 8 8 8 8 8 8 8 8 8 8 8 9 X.H A.B.G.R.AXDXa - # # - > < > u r r = o ,     R.G. .^ Y 8 8 8 8 8 8 8 8 8 8 8 8 8 8 8 8 8 ",
"8 8 8 8 8 8 8 8 8 8 8 8 8 8 8 8 8 8 8 x U _ 5.B.B.G.lXcXAXLX, 6 5 5 , * ZXCXCXCXV.B.M.>.) K 8 8 8 8 8 8 8 8 8 8 8 8 8 8 8 8 8 8 ",
"8 8 8 8 8 8 8 8 8 8 8 8 8 8 8 8 8 8 8 8 q o.E V B.B.H.G.R.5XLXPXLXLXGXFXQ.R.R.G.B.6._ K 8 8 8 8 8 8 8 8 8 8 8 8 8 8 8 8 8 8 8 8 ",
"8 8 8 8 8 8 8 8 8 8 8 8 8 8 8 8 8 8 8 8 8 8 q m P H | ..Z.A.C.C.B.M.B.Z.Z.M.M.| E o.9 8 8 8 8 8 8 8 8 8 8 8 8 8 8 8 8 8 8 8 8 8 ",
"8 8 8 8 8 8 8 8 8 8 8 8 8 8 8 8 8 8 8 8 8 8 8 8 q c H T C C F ^ G } ^ ^ T T T P 8 8 8 8 8 8 8 8 8 8 8 8 8 8 8 8 8 8 8 8 8 8 8 8 ",
"8 8 8 8 8 8 8 8 8 8 8 8 8 8 8 8 8 8 8 8 8 8 8 8 8 8 q f c l P I o.P P U K c g 8 8 8 8 8 8 8 8 8 8 8 8 8 8 8 8 8 8 8 8 8 8 8 8 8 ",
"8 8 8 8 8 8 8 8 8 8 8 8 8 8 8 8 8 8 8 8 8 8 8 8 8 8 8 8 8 8 8 8 8 8 8 8 8 8 8 8 8 8 8 8 8 8 8 8 8 8 8 8 8 8 8 8 8 8 8 8 8 8 8 8 ",
"8 8 8 8 8 8 8 8 8 8 8 8 8 8 8 8 8 8 8 8 8 8 8 8 8 8 8 8 8 8 8 8 8 8 8 8 8 8 8 8 8 8 8 8 8 8 8 8 8 8 8 8 8 8 8 8 8 8 8 8 8 8 8 8 ",
"8 8 8 8 8 8 8 8 8 8 8 8 8 8 8 8 8 8 8 8 8 8 8 8 8 8 8 8 8 8 8 8 8 8 8 8 8 8 8 8 8 8 8 8 8 8 8 8 8 8 8 8 8 8 8 8 8 8 8 8 8 8 8 8 ",
"8 8 8 8 8 8 8 8 8 8 8 8 8 8 8 8 8 8 8 8 8 8 8 8 8 8 8 8 8 8 8 8 8 8 8 8 8 8 8 8 8 8 8 8 8 8 8 8 8 8 8 8 8 8 8 8 8 8 8 8 8 8 8 8 ",
"8 8 8 8 8 8 8 8 8 8 8 8 8 8 8 8 8 8 8 8 8 8 8 8 8 8 8 8 8 8 8 8 8 8 8 8 8 8 8 8 8 8 8 8 8 8 8 8 8 8 8 8 8 8 8 8 8 8 8 8 8 8 8 8 ",
"8 8 8 8 8 8 8 8 8 8 8 8 8 8 8 8 8 8 8 8 8 8 8 8 8 8 8 8 8 8 8 8 8 8 8 8 8 8 8 8 8 8 8 8 8 8 8 8 8 8 8 8 8 8 8 8 8 8 8 8 8 8 8 8 ",
"8 8 8 8 8 8 8 8 8 8 8 8 8 8 8 8 8 8 8 8 8 8 8 8 8 8 8 8 8 8 8 8 8 8 8 8 8 8 8 8 8 8 8 8 8 8 8 8 8 8 8 8 8 8 8 8 8 8 8 8 8 8 8 8 ",
"8 8 8 8 8 8 8 8 8 8 8 8 8 8 8 8 8 8 8 8 8 8 8 8 8 8 8 8 8 8 8 8 8 8 8 8 8 8 8 8 8 8 8 8 8 8 8 8 8 8 8 8 8 8 8 8 8 8 8 8 8 8 8 8 ",
"8 8 8 8 8 8 8 8 8 8 8 8 8 8 8 8 8 8 8 8 8 8 8 8 8 8 8 8 8 8 8 8 8 8 8 8 8 8 8 8 8 8 8 8 8 8 8 8 8 8 8 8 8 8 8 8 8 8 8 8 8 8 8 8 "
};
