/* XPM */
static char *_af7e0d431174657eac19e3b9b42acdcXld6C8GC131lXzqO[] = {
/* columns rows colors chars-per-pixel */
"64 64 250 2 ",
"   c #0B0C19",
".  c #140D1D",
"X  c #1C0F1E",
"o  c #120714",
"O  c #1B121D",
"+  c #16151C",
"@  c #090E13",
"#  c #23141D",
"$  c #2D101D",
"%  c #1B301E",
"&  c #2B251E",
"*  c #150E23",
"=  c #1A0F23",
"-  c #0C1522",
";  c #151324",
":  c #1B1324",
">  c #1D1925",
",  c #16142A",
"<  c #1B152A",
"1  c #161C2B",
"2  c #1D1B2B",
"3  c #131925",
"4  c #1D1C31",
"5  c #191835",
"6  c #120D2B",
"7  c #231524",
"8  c #2B1424",
"9  c #23162A",
"0  c #22192C",
"q  c #291A29",
"w  c #361928",
"e  c #231C32",
"r  c #241C33",
"t  c #37162B",
"y  c #1D222D",
"u  c #172426",
"i  c #1E2332",
"p  c #1C2A39",
"a  c #23232E",
"s  c #2B2528",
"d  c #37282E",
"f  c #263A26",
"g  c #232534",
"h  c #232936",
"j  c #232739",
"k  c #242A3A",
"l  c #2A2B3C",
"z  c #292637",
"x  c #342837",
"c  c #293638",
"v  c #363539",
"b  c #37302E",
"n  c #471B29",
"m  c #581D2B",
"M  c #4E1E32",
"N  c #47242B",
"B  c #56272C",
"V  c #492B35",
"C  c #592B34",
"Z  c #483739",
"A  c #5B3235",
"S  c #573639",
"D  c #55312F",
"F  c #63262D",
"G  c #642C34",
"H  c #6B2D33",
"J  c #672C39",
"K  c #6B3134",
"L  c #64333C",
"P  c #6A3539",
"I  c #723336",
"U  c #2A4F1A",
"Y  c #396A1A",
"T  c #3B771D",
"R  c #2F6315",
"E  c #345526",
"W  c #396627",
"Q  c #3B7327",
"!  c #19410F",
"~  c #467E19",
"^  c #49413D",
"/  c #4E722F",
"(  c #252D41",
")  c #2B2D42",
"_  c #2B3344",
"`  c #2C3A45",
"'  c #2D3D4B",
"]  c #263648",
"[  c #323D4C",
"{  c #353646",
"}  c #2B3D52",
"|  c #333E51",
" . c #342B48",
".. c #2F3C61",
"X. c #553C48",
"o. c #6B3A41",
"O. c #2D4349",
"+. c #33414E",
"@. c #3A464A",
"#. c #344453",
"$. c #3B4553",
"%. c #364956",
"&. c #3B4A55",
"*. c #3B4D5A",
"=. c #37485B",
"-. c #3D515C",
";. c #2E4559",
":. c #3A4A61",
">. c #3E5564",
",. c #3D5A70",
"<. c #45484A",
"1. c #594848",
"2. c #424C56",
"3. c #47545A",
"4. c #595959",
"5. c #5C4F50",
"6. c #6A4547",
"7. c #764946",
"8. c #675956",
"9. c #755A55",
"0. c #655149",
"q. c #54694E",
"w. c #69635E",
"e. c #75635B",
"r. c #435464",
"t. c #4A5563",
"y. c #445964",
"u. c #4B5A65",
"i. c #4C5C6C",
"p. c #45586A",
"a. c #525E68",
"s. c #495D72",
"d. c #515E70",
"f. c #6C5E63",
"g. c #4D616C",
"h. c #4D6167",
"j. c #52626C",
"k. c #576465",
"l. c #4D6473",
"z. c #4D647A",
"x. c #4B687C",
"c. c #526473",
"v. c #556A75",
"b. c #52667A",
"n. c #556A7B",
"m. c #5B6D7B",
"M. c #5B6775",
"N. c #5C727C",
"B. c #53767E",
"V. c #58736A",
"C. c #656767",
"Z. c #786C6A",
"A. c #797369",
"S. c #67767B",
"D. c #767A76",
"F. c #676E6F",
"G. c #86776B",
"H. c #867C76",
"J. c #8D716B",
"K. c #806C5C",
"L. c #78827B",
"P. c #84827B",
"I. c #88867C",
"U. c #978A79",
"Y. c #9A8F7A",
"T. c #A5917F",
"R. c #5E7381",
"E. c #597688",
"W. c #4C6E88",
"Q. c #6C7C82",
"!. c #637987",
"~. c #717F8A",
"^. c #847F83",
"/. c #738284",
"(. c #73848A",
"). c #798887",
"_. c #6A8492",
"`. c #7A8B95",
"'. c #728B92",
"]. c #769EA6",
"[. c #8B8B85",
"{. c #888986",
"}. c #928D83",
"|. c #918686",
" X c #8D928C",
".X c #8D9187",
"XX c #93948C",
"oX c #969A8E",
"OX c #999588",
"+X c #8D9591",
"@X c #889897",
"#X c #929691",
"$X c #9B9D93",
"%X c #979B95",
"&X c #908A91",
"*X c #A69888",
"=X c #A29D96",
"-X c #9DA195",
";X c #9AA49C",
":X c #9BA48B",
">X c #A3A395",
",X c #A5A59B",
"<X c #A5AA9D",
"1X c #ABA998",
"2X c #B5AB99",
"3X c #AEAB97",
"4X c #959FA1",
"5X c #9AA8A5",
"6X c #8EAAAC",
"7X c #AAADA4",
"8X c #AAB4A7",
"9X c #B4BBAB",
"0X c #B6B8A8",
"qX c #B0B2AE",
"wX c #C4BCA7",
"eX c #C2BEBB",
"rX c #BAC6B7",
"tX c #BCCBB3",
"yX c #C7CBB8",
"uX c #CAD3BE",
"iX c #D6DABD",
"pX c #C5C1A5",
"aX c #D9EFBF",
"sX c #BCC9D2",
"dX c #AFC4C4",
"fX c #C8D5C8",
"gX c #D1DBC4",
"hX c #D7DEC8",
"jX c #C7D0CE",
"kX c #E1DEC2",
"lX c #DAE5CB",
"zX c #D9EBD4",
"xX c #E2E8CA",
"cX c #E4ECD3",
"vX c #E6ECD9",
"bX c #EAF4D5",
"nX c #ECF5DB",
"mX c #EDF9DC",
"MX c #E5F5DA",
"NX c #F3FADD",
"BX c #F1F6DD",
"VX c #E9F3CB",
"CX c #EEFBE3",
"ZX c #EBF6E7",
"AX c #F3FCE3",
"SX c #F3FCEA",
"DX c #F6FBE9",
"FX c #F7FEF4",
"GX c #E9EDE6",
"HX c #CFDDE3",
/* pixels */
"g g g g g g g g g g g g g g g g g g g g g g g g g g g g g g g g i g g g g g g g g g g g g g g g g g g g g g g g g g g g g g g g ",
"g g g g g g g g g g g g g g g g g g g g g g g g g g g g g g g g g g g g g g g g g g g g g g g g g g g g g g g g g g g g g g g g ",
"h g g g g g g g g g g g g g g g g g g g g g g g g g g g g g g g g g g g g g g g g g g g g g g g h g g g g g g g g g g g g g g g ",
"g g g g g g g g g g g g g g g g g g g g g h g g g g g g g g g g g g g g g g g g g g g g g g k g g g g g g g g g g g g g g g g g ",
"g g g g g g g g g g g g g g g g g g g g g g g g g g g g g h c g h g g i g g g g g g g g g g g g g g g g g g g g g g g g g g g g ",
"g g g g g g g g g g g g g g g g g g g g g g g g g g h h g g c i L.1 i g g g g g g g g g g g g g g g g g g g g g g g g g g g g g ",
"g g g g g g g g g g g g g g g g g g g g g g g g h g ZXk k e i g L.2 i k - g g g g g g g g g g g g g g g g g g g g g g g g g g g ",
"g g g g g g g g g g g g g g g g g g g g g h h g k ( #XcXk 2 _ k k.1 i k @Xi g g g g g g g g g g g g g g g g g g i g g g g g g g ",
"g g g g g g i g g i g g g g g g g g g g h k @Xh k k D.M.k 1 NX; SX  i i v 2 h h i h h g g h g g g g g g g i g g g g g g g g g g ",
"g g g g g g g , 5 i i i g g g h h h h j k i L.k k g D.c ZXAXk.; 5XCX;X+ v 2 j i NXy g g g h g g g g g g g a 2.l 4.2 g g g g g g ",
"g g g g g $X.XnXnXbXbXi g g h h h l SXj j > k.k h CX5XF.3.y u ; @X* Q.(.nXDXj i 4.g k j - g g g g g g g oXoX.XnXbXSXi g g g g g ",
"j g g g 0 [.oX%XNXmXbX[ i g k k k ) gXAXk > @X4 SXQ.S.: . ; O.; @X* ; 2 S.`.FX4 <.i g g lXg g h g g g 0 }.$X$XbXnXnX2 i g g g g ",
"g g i i P OXI.8X<XSXCX7Xg h k k k q D.F.l : C.SX/.{ ; ; $.: O.; `.* } ; ; (.(.DXx j k i &.k k k k k k w <X$X$XNXNX:X:Xi i g g g ",
"j g i i 8 H 9.,X-XAX7XZ.g h k k k w S.@.1 DXFXQ.* ; 5.x +.2 -.; ).; ' l n : , M.CX1 i g v h k h h k k 8 H J.-XL K.yXP.i i g g g ",
"j g i i > ; , < = X X 2 i h k k k t S.FX`.n.. ; [ ( D.2.+.2 3.; (.> ' k A e ' *   ).lXDXv k k k k k i , ; ; : ; ; * < y i g g g ",
"g i - DXDX5 mXNXAXAXC.NXDX2 k k k 8 3.rXW.. n l [ l D.3.+.2 u.; (.> ' k V r +.< m * M.5X3.j k k k . mXNXNXNXDXDXDX9XAXSXDXi i g ",
"g g a oX%XBX-X>X,X<X<X7X8X9 k ( @XfXqX3.* ; 4.' [ l D.4.' 2 j.; (.: O.k V g [ 0 B , ;   ).FXk l k ; A.$X$X$X-X,X<XSX>X,X,Xi g g ",
"j g 7 B ;X;X;X<X<X<X=X7X8XX l ( dXW.g ; #.: v [ #.j D.4.+.2 k.; (.> O.j V j +.0 X.k 4 : - !.DXk k < 9.e.%XD.,X7X7X: -X7X<Xg g g ",
"j k > w w > : : = : : 7 : k p ZX~.; O l #.2 <.[ | g D.4.#.> k.; (.: ' g D h +.2 V ` ' 9 8 _.!.FX( ( : 7 : : ; ; ; 9 w n 9 g g g ",
"j g j ; m H 9.A.G.G.e.v 4 4 MXh.. : L ` #.> ^ [ +.z D.k.#.> 3.; (.: ' g D g #.2 V ` O.0 o.: * B.FX; 4 # K 7.G.G.G.K.C : i g g g ",
"j g i 6.T.bXnX0XAXNXAXnX< $._.l.2 9 8.` #.> b [ +.z S.F.| > 3.; (.: ' g D g +.< D ' #.< 5.: : p !.M.. A.iXNXbXOXNXnXbX0X2 i g g ",
"g g g J.=X=X,X9X9X<X8XAXg :.!.; #.9 4.&.#.2 <.[ #.l S.C.#.> 3.; (.: ' g D z #.< S ' #.2 <.j < > !.m.. 0X<X>X,X1X0XhXnXbX3 g g g ",
"g g k ; ; 7 8 8 w w # O > =.R.: %.9 4.h.#.0 v +.#._ S.k.%.< 3.; (.> +.g S k %.> X.[ #.0 Z j $.2 R.m.2 O O w 7 w M t . X g g g g ",
"g g g g n B 7.0.P.9X{.w 2 p.N.: %.9 4.k.#.< b +.%.) S.k.%.> y.; /.> #.g S g %.> S ` %.> Z j %.) n.Q.2 7 F F %X1XU.U.X i j g g g ",
"g g g 2 G 9.$Xd 9XnXbXjX2 s.N.: k < 5.k.%.< <.#.%.g F.k.%.: *.- /.; #.2 S 4 &.2 S _ %.2 A j ).x b./.2 7 G.oX;XuXVXVX5.g g g g g ",
"g g g 2 H [.5XC.f.CXmXfX; z.m.q.ZXZXmXSXSXSXAXSXCXDXNXNXcX{.O.; Q.1 SXFXFXGXGXFXFXfXGXCXSXZXzXZXb./.> 7 oXoX-XO s yXXXi i g g g ",
"g g i 2 F $ XXcXcX8 bXHX'.b.N.&.j.c.sXl.l.l.HXj.c.s.- h.v.) c ; Q.  j.l.@ j.j.g.~.l.l.l.jXj.m.k z.L._.8 oX$X;XnXmX{ 8.i i g g g ",
"g g i 2 q XXoXbXnX .x SXE.c.m.2.u.i.p.l.i.l.y.v.i.p.r.u.j.l ` ; Q.3 c.m.u.j.g.i.u.l.g.l.y.v.v.k l.S._.& -X1.Z nXnXbX2 i i g g g ",
"j g i 2 P oXXXbXnXnXCX0 ; M.N.: #.< M N #.; m , [ l G : +.< %.; S.. +.' m : #.: C i ;.; C > #.4 l.L.; ; P.w.7XCXnXbXH.g i g g g ",
"g g i 2 P oX-X>XZXnX9X&X; c.m.q %.0 6.4._ ; 4.$.%._ D.Z $.< #.; Q.> %.] V e -.< S _ >.6XS k &.4 b./.> 7 OX>X<X$XDXnX}.i i g g g ",
"g g i 2 P 6.P.$X>X<XyX=X, j.N.q &.0 6.+.#.].8.%.%._ D.<.&.2 +.- S.> %.i V g *.5 L 8X} : A h &.4 n./.e w %X$X$X>X>X.X}.y i g g g ",
"k g i 2 F A.P.$X-X,X.X$X< j.R.q &.0 6.+.*.: w.#.%.) D.<.*.> %.- Q.> %.i 1.l *.< S 1 =.4 S l *.2 n.).2 N $X$X$X>X$XOX}.i i g g g ",
"j i i 2 H H.XX%X$XoXnX0X, M.R.q *.0 6.&.*.7 F.#.%.l L.<.*.2 %.; Q.2 &.) 0.l %.5 A _ *.0 A g -.e m.).1 B V -X$X$X$XoX}.i i g i g ",
"g g i 2 K I.oX-XbXD.7XeX, m.S.9 *.0 o.@.*.0 4.fX#.g L.<.2.> O.; Q.> %.k S ( +.5XA ` *.0 D g -.e m./.4 B %X5.7XiX.XoXXXi i g g g ",
"g g g 2 H H.oXq A.yX9X9X; n.R.9 -.0 o.&.*.2 C.' ' _ D.<.*.2 #.; Q.; %.p S u u.< D ` -.4 D g -.e m.).2 B XX%XoX1.<X-X.Xi i g g g ",
"j g i 2 O $ B GXP.q XX|.; n.!.: -.0 o.3.=.0 A.#.*.*.D.3.*.: O.; S.; %.v.^ 2 %.< D ` :.4 A k *.e n.(.2 w 7 w > zX0 oXA i i g g g ",
"j g g > D Y.; 9XyXfX0 A > b.!.x y.0 6.a.=.2 D.%.-.[ D.a.jX{.@.; (.FXg.rX8.e %., S %.*.2 P ) -.r b.(.> N I.X $XlXnX0 H.i i g g g ",
"j g g 2 P w ;XfXcXMXMXV ; b.N.;XvXhXgXcXvXhXnXZXvX).#X_ vXg c ; '.@XSXy C.zXcXcXtXvXnXxXrXZXnX4Xz.(.> B XX%X7XcXnXbX: i i g g g ",
"j g i 2 G D.oX#XZ iXgX|.; n.n.{ j.n.o g.j.c.@ g.c.=.l m.~.| <.; N.`.r.V.k u.u.z.@ j.j.c.@ c.v.&.z.(.> B XXoX,Xx 7X>Xe.i g g g g ",
"j g g 2 K [.XXoXs 8 ;XH.; n.n.9 < < < < < : , : < < = R..  .jX; N.2 . R.. : < , < < < < : : : : z.~.> B  XoX,XrXq s I.i i g g g ",
"j g g 2 K |.XXXXZXnXX H.; b.m.9 &.e C C.#.< 1.$.%.{ q ; 6X .| , e M.`.: d 5 &.< J +.%.< S 0 $.z z.~.> B  X X%XfXyX7XH.i i g g g ",
"j g g 2 K Z.XXXXXXfX,Xf.; b.m.9 -.e L *.5X2 1.*.*.) V > < 0 h ; i.: : < S j -.2 L $.-.2 S l &.z z.(.> B .X XoXoXhXoXG i i g g g ",
"j g g 2 P Z.<XXXoX#X-XZ.> n.R.q -.r o.&.r.0 8.*.2.) 1.<.@.< } , m.< &.1 S 4 r.2 G $.>.g S l &.r n.(.; n ,XoXOX}.XX.XH i i i g g ",
"j g i 2 K H.{..XoXoX-XZ.CX5 !.q -.r P &.-.0 1.%.*.l 8.2.2.< ;., m.< &.1 A 4 r.< J 2.>.e S g *.e n.4 ].9 I.{.}.$X}..XI i i g g g ",
"j g i 2 H P.{. XoXXXoX4.!.4X!.q -.e P @.*.0 S %.&.l w.2.2.< } , m.: %.j A g 3.2 J 2.>.e D g *.e l.@Xi.7 .X[. XXX|.[.H e i g g g ",
"j g g > H L e.6.{.7XP.8.]   S.7 -.0 J @.=.7 S 6X=.g w.<.&.< =.; m.: *.4 A g *.4 J Q.:.2 D 2 %.2 v.. d.8 P Z.[.P.$X{.I i i g g g ",
"j i g < m 7.P P J 6.o.8 * ..S.: -.3 d c *.+ b p } + <.@.&.< #.* m.* +.h s p =.; s i *.. + 1 *.; v.p.; # P 7.7.I G J 8 2 i g g g ",
"k g i 1.V n w Z X.V Z H.* ..N.$.j.j.sXi.c.s.jXu.h.c.c r.h.{ ` ; m.2 j.c.C.i.j.l.`.u.i.i.HXi.h.=.c.c.; N w q w N *XwXkXxX2 i g g ",
"j g 3.AXNXNXNXAXAXAXDXNXAX5 N.[ t.i.p.r.i.i.i.u.u.i.i.u.r._ | ; m.1 3.u.y.t.3.i.y.u.u.i.p.u.y.' c.; L.NXNXNXDXSXSXNXNXAXAXi i i ",
"j g 1  X X X#X#XoX$XlX-X7X5 S.: ; : 8 9 g < d 4 2 > 8 9 i > =.; v.; g i q > y.< 8 g g > 8 < l 2 b.2 P {. X XrX$X#XcX%X$XAXi i i ",
"j g 2 A. X X[. X X$ @X X%X5 S.9 &.e J { %.0 Z $.$.| Z.v &.{ =.; c.: #.[ B | #.2 G _ *.e D l %.0 l.e J  X+Xn T %XP.{.#X%X9Xi g g ",
"j i 0 o.J n & s O ; N Z.Z.5 S.9 &.e J 2.%.2 8.+.&.{ C.<.&.2 :.; c.> *.l.C 4 *.0 J ( =.4 S l &.2 z.0 G G w ; ! y > : o.G.oXi g i ",
"k k 9 m $ 0.8XmXAXaX~ N B i S.7 -.9 L 2.%.2 1.+.%.g w.2.%.: :.; l.< *.g C l %.2 P k %.4 A k %.> l.4 8 X ZX<XgXSXbXmX# m F 0 i g ",
"g O.W ; 5.{. X+X XL.MXq.: ' n.g fX(.,XfXfXD.yXyXrX%XrX8XrXX.=.; c.2 fX;XC sXrXD.=XjXfX-XG.7XrX{ z.r % >  XXX#X X@X:X~ < W q.i g ",
"i a T + S [. X X X X XE @ 4 c.9 ,.} C.p.,.l { r.y.( C.3.r.z #.; c.. >.p.d d.=.[ l r.r.| ;.r.r.{ x.4 Q 9 ;X#X+X#X#X XY * T f i i ",
"h c W E w n o.+X+X+XL./ Y 2 i.9XrXrXrXuXgXgXuXgXgXgXfXfXzX{.=.; j.fXgXlXlXcXhXrXrXyXuXrX<X9XtXr.x.< E f L o.#X+X#X X/ W E / i i ",
"g Y E y f Y N D.Z.A.W U Q ; $.2.r.r.r.t.i.i.u.t.p.i.t.u.a.u.r.* :.y.u.a.i.d.i.d.i.u.u.u.t.t.i.} p.; E Y ; F 0.9.Z.D.f U Y Y y i ",
"T E U u Y a s A B + Y ~ Y T O O O Z s # O d + ^ 1.Z X 9 . o o ; ; ; * . o s s v < > d Z r : : 7 9 . f Y a ; D D N U % U R R y g ",
"j g y 1 a ^.OX,X2 C.I.D.z e.G.H.G.U.Y.Y.*X*X> *XY.U.U.>XpX2X>X3X3X3XOXG.e.uX0X3X}.5.G.G.G.G.U.U.Y.*X*XO 2 2 }.*X2 *X{.2 0X4 2 g ",
"k <.i F.C.g g g d 4 r a OX*XwXwX0X8.U.Z.v 7 0 ; pXcXOX< Y.U.G.wXAXBXnXbX+ V hXkXiX7 a pXwXU.*X2XwX3X*X*XY.g {.Z.i D.g {.4 oXg g ",
"k g g g g g g g g g 4.g a g >Xg g g v H.U.OX. y a 2 OXl v }.2X0Xg a g g g 4 8.8.8.8.w.C.a g h s 3X>XY.a g g g g g g g g g g g g ",
"g g g g g g g g g g g g g g j g g g g g g g g g g g g g h g g l k g g g F.g g g g g g g g g g g g g g g g g g g g g g g g g g g ",
"g g g g g g g g g g g g g g g g g g g g g g g g g g g g g g g g g g g g g g g g g g g g g g g g g g g g g g g g g g g g g g g g ",
"g g g g g g g g i g g g g g g g g g g g g g g g g g g g g g g g g g g g g g g g g g g g g g g g g g g g g g g g g g g g g g g g "
};
