/* XPM */
static char *result[] = {
/* columns rows colors chars-per-pixel */
"64 64 92 1 ",
"  c #222733",
". c #252934",
"X c #2A2D35",
"o c #272C38",
"O c #292E39",
"+ c #2F3136",
"@ c #2D323D",
"# c #313337",
"$ c #32353B",
"% c #37383A",
"& c #3B3C3E",
"* c #313641",
"= c #353A44",
"- c #393D45",
"; c #3A3E49",
": c #3D414C",
"> c #424344",
", c #42454D",
"< c #4A4B4D",
"1 c #424651",
"2 c #454A54",
"3 c #494D56",
"4 c #4B4F58",
"5 c #4D515B",
"6 c #545555",
"7 c #51555D",
"8 c #58595B",
"9 c #535760",
"0 c #565A63",
"q c #5A5D66",
"w c #5B5F68",
"e c #5D616A",
"r c #646464",
"t c #62666E",
"y c #67696D",
"u c #6A6C6E",
"i c #666A72",
"p c #6A6D75",
"a c #6D7076",
"s c #6E7279",
"d c #717171",
"f c #71757C",
"g c #75787F",
"h c #787A7D",
"j c #767A81",
"k c #7A7D84",
"l c #7D8187",
"z c #7F8288",
"x c #808287",
"c c #82858C",
"v c #85888E",
"b c #8B8B8C",
"n c #878A90",
"m c #8A8D93",
"M c #8E9196",
"N c #8F9298",
"B c #92959A",
"V c #96999E",
"C c #989A9F",
"Z c #9A9DA2",
"A c #9EA1A6",
"S c #A1A3A7",
"D c #A3A5AA",
"F c #A6A9AD",
"G c #A9ABAF",
"H c #ABADB1",
"J c #AEB1B4",
"K c #B1B3B7",
"L c #B4B6B9",
"P c #B6B9BC",
"I c #B9BBBE",
"U c #BCBEC1",
"Y c #BEC0C3",
"T c #C1C3C6",
"R c #C4C6C9",
"E c #C7C9CB",
"W c #CACCCE",
"Q c #CDCED0",
"! c #CED0D2",
"~ c #D2D4D5",
"^ c #D5D7D8",
"/ c #D7D8DA",
"( c #DADCDD",
") c #DEDFE0",
"_ c #DEE0E1",
"` c #E3E4E5",
"' c #E6E7E8",
"] c #E7E8E9",
"[ c #EBECEC",
"{ c #EEEFF0",
"} c #EFF0F0",
"| c #F1F2F2",
/* pixels */
"                                                                ",
"                                                                ",
"                                                                ",
"                                                                ",
"                                                                ",
"                               .                                ",
"                            o...XXX+                            ",
"                         :*        @76                          ",
"                      *n)||^PABNZL~[||R:                        ",
"                  o9k= *iA)}|||||||[LpO @qo                     ",
"                =:=B'{H7   1pmmmnj0X  4S]'j                     ",
"                k|Z=Ov)|Qv2        ;fY|`N=@m^2                  ",
"              =N30T]m@ojQ||)HmmmmH(||~k@ f)Q92S5                ",
"             :Of~AOs)`cO 0Z~||||||~V9 Of~]z@B^jO,               ",
"            2`(kox~wON{)k*  *wkze=  @c(|F-5YkOj^`y.             ",
"           o otT~q1UF*2K|'DwO   o@tS]|J2*ZU-p)Ep. +.            ",
"           E`Lpot(G*j(i 2A{}{^TR^}}{J9 p(l;HWeopL_'uX           ",
"          O3ecE)j*B(92QY5 *jH({[)Fj* 5UW:a_N*n_!mt3-#           ",
"         Oznj2 3F^0e)mON{H4        eU[m*G!20!K5 1fvvd+          ",
"         m'^`})B=9!N;UY;2U}QZpwesZ)[A;9^Z*N^e*N^|`//]a+         ",
"         O   *pH'B*nU;n'z.0H'|||})N;*N_i:YN*m'Ks-   O1#         ",
"        9BHUUHj;:F)i5Ee3WQio.5004 =m'U;k~0q)J2*jFIYIBt&X        ",
"       @]^KAFQ}|Yt3UH;ZZ*j)'HjsslK{Yw:UA:AY5qP}}!HSJ!}E&        ",
"       ::     OqF]Y5j/peWk*tZ^[[QB4*n^ii^l2U{He*     :c6X       ",
"       otA~[}`Pn3*z'B:GL:cQn2o  *eZ~n:KJ:N'N*3zK_}}^ApO++       ",
"      -_|[QAmmBY]Rs*N)twWn;jH'))]Jj:zWte(Z;k![RBmmZE[}_z#       ",
"      j~j@  O== oiK)j2LK2j^Gs2:::sF^l:HY3s(Us@ *;O  OpW[6       ",
"      5  eF(|||`Un::G~iqQA2tAQ]]!Ft2A~peQJ3@aF^}}}_JpO pu       ",
"       0!|`Zki0iML]Uw:FU2j^UNt22tNU)k0YJ39H]YNpqijJ'|(i $       ",
"      n|_kO  *405*oiYWe:AKt4kZKLAl2eYG20Y!j*o505-  op/}m.o      ",
"     7|E= 2Z)}||}}QZ99KRq;Z^AjtwjZ~F:5UYt=kR}}||}[F5 @P|h.      ",
"     j~@ Z||Uve2;4jH'Qj4ZUk;2sBZs2;jYF9iU'Kj9::ezY}}Z.XWQX      ",
"     m0 Z|W2 ;qpi9= oeH)V2sPWLZVJ!Uj2n)Lpo=wzcs2  4W|L 9~@      ",
"     j 0{EO4T||}|||)Lx2*jYEx42ei52jUEz=5MQ||||||~j *R}p K$      ",
"     5 L{=;'|Es* O;7pZQ(Ze2vL~ET!UN25Z)WZp5;*.*tU}G ;]U c#      ",
"     2 )L Z|H  4cFAMjw*=pA~Unw119sZJZt=:wkNAAc5  k{M G[ y#      ",
"     q )M ))OOH||)HDLT~~Hk54kZLLNe;9zU{{)QUR{|}U* T_.z}ou#      ",
"     *OTmO|Z B|T3       1fFQUBkvL((LNe=  .  ot)}H k|;j) hX  .   ",
"      ;MG*|jo`)O 9D(||[QLZj4=qffe=5jZKW[}|)F9 *){=e|2MG9r.      ",
"      s3) [s;|n k|{Hf000tkZT^QUUQ^RAlp000pA{}j n}0w|oR0F&.      ",
"      2ZZtPv1}tO][0  5kmnvft3*;12qjlNZFZj= 3']*9|wjU3Fxu#       ",
"      =kkHtUO|e9|n 4Q||QHDDFPQ/!PFBnnnA^}]s j|e2|:KiFfz6X       ",
"      *zfvmP2Ek0|5*`{n* =tffpq99psssw2  t_}::|p0Q,Ikzji-        ",
"       BApjkFfL;|3p|c 9Q[RFMnnZVMmNHQ|!p e|k*}0ZfFfkfBdX        ",
"       7BmktnvT1~ts|*2]R; @qjnmnnje* 2Q}e ]n5_*Lvzesnk>         ",
"       @NmZViZNJkD3|OM'**F{(FnfflZQ}K=*'F 'iNmmMZivVmu.         ",
"        *ZmZZckDnU;Q5ZT H[jOgFUUAsow`U KG=';YtBknzZnS#          ",
"         1MkZmviZjFwFj~ /NoQ}}||||~*k{ UkzzNsZsNBVkZ-           ",
"          4ckBmvvmtmVq`:Ufi|||||||}zw^*^,JgtgjzNZsV5            ",
"           3ckAvcMzejNzHfDe||||||||jnvMpmjejlNmSsZu@            ",
"            ,BkHkmNziexZfJ4(}|||||(:PivjftjBBvHgDf-             ",
"             *SkLkVxzj00ZzZs(||}|)9Bkzt0fkVZfPsKr,              ",
"              @HaLpHkmfBiBZVjBRWZjZNfsMsMkHtIiP6>               ",
"               OKfKyFgBxsnkctfqikkpsvpvNjFqUpU,>                ",
"                oKfDfmGiZkifvZBBZcpsNAtHvtHiI&%.                ",
"                 .nfnCq!n9HUvtkkinHZ7mT9BZqb%X                  ",
"                   ,7uEqm/Cqtcnvp5rAEp5Rg><Xo                   ",
"                     $>GZ0zT)YUUR'Jt,NS<@X                      ",
"                      o#>r8,-0q6:@-<8&X                         ",
"                        .. o     o..                            ",
"                                                                ",
"                                                                ",
"                                                                ",
"                                                                "
};
