/* XPM */
static char *result[] = {
/* columns rows colors chars-per-pixel */
"64 64 217 2 ",
"   c #0A0101",
".  c #0A0707",
"X  c #150905",
"o  c #0C120D",
"O  c #13120B",
"+  c #080917",
"@  c #060718",
"#  c #150818",
"$  c #140C1B",
"%  c #0C1311",
"&  c #031019",
"*  c #0E131C",
"=  c #14131E",
"-  c #1C141B",
";  c #19181A",
":  c #230102",
">  c #27080D",
",  c #300806",
"<  c #271100",
"1  c #290A19",
"2  c #29151B",
"3  c #35191C",
"4  c #000B23",
"5  c #0D0D23",
"6  c #170D25",
"7  c #071226",
"8  c #0C1426",
"9  c #0C1C25",
"0  c #0E1629",
"q  c #041D2A",
"w  c #0D1B2C",
"e  c #131525",
"r  c #1B1425",
"t  c #131A25",
"y  c #1A1924",
"u  c #13162B",
"i  c #1C142B",
"p  c #131B2C",
"a  c #1A1C2A",
"s  c #0B1632",
"d  c #0D1C32",
"f  c #0A1C35",
"g  c #131532",
"h  c #181736",
"j  c #141C32",
"k  c #1B1D33",
"l  c #121639",
"z  c #151B39",
"x  c #300921",
"c  c #231429",
"v  c #261D28",
"b  c #2B1D2D",
"n  c #391A29",
"m  c #2A1C35",
"M  c #0C212D",
"N  c #13222E",
"B  c #1B222D",
"V  c #0A2136",
"C  c #0E2134",
"Z  c #142133",
"A  c #1B2133",
"S  c #182A34",
"D  c #14233D",
"F  c #1B263B",
"G  c #1E2A3D",
"H  c #22202D",
"J  c #3B2528",
"K  c #3A2B2D",
"L  c #232535",
"P  c #2D2430",
"I  c #252837",
"U  c #2B2935",
"Y  c #242639",
"T  c #262A3B",
"R  c #2B2A3A",
"E  c #342835",
"W  c #332C3C",
"Q  c #393538",
"!  c #421A26",
"~  c #49262C",
"^  c #463729",
"/  c #533C2E",
"(  c #4A2B37",
")  c #4B383A",
"_  c #54343D",
"`  c #662E2D",
"'  c #68382C",
"]  c #404038",
"[  c #53433C",
"{  c #1C2E48",
"}  c #242E44",
"|  c #2A2E42",
" . c #252E49",
".. c #263144",
"X. c #2B3345",
"o. c #24344A",
"O. c #2C344A",
"+. c #2E3A4C",
"@. c #373744",
"#. c #343449",
"$. c #333B4B",
"%. c #2B3853",
"&. c #2E3C52",
"*. c #323D53",
"=. c #3F3F51",
"-. c #373B58",
";. c #4C3C49",
":. c #493E53",
">. c #5A3854",
",. c #623E4A",
"<. c #34424C",
"1. c #2F435E",
"2. c #364356",
"3. c #3B4A57",
"4. c #35435B",
"5. c #3B455A",
"6. c #394765",
"7. c #3C4B64",
"8. c #3D516A",
"9. c #46414A",
"0. c #46485A",
"q. c #594B55",
"w. c #684347",
"e. c #7E554C",
"r. c #6D5255",
"t. c #77535B",
"y. c #454662",
"u. c #484966",
"i. c #455266",
"p. c #45546B",
"a. c #4B546B",
"s. c #43586D",
"d. c #4B5A6F",
"f. c #495871",
"g. c #4B5C73",
"h. c #4E5D79",
"j. c #515E75",
"k. c #745662",
"l. c #4E6178",
"z. c #526176",
"x. c #54647A",
"c. c #59637B",
"v. c #5A697E",
"b. c #706B7C",
"n. c #834D39",
"m. c #80533C",
"M. c #AE5743",
"N. c #AC5E57",
"B. c #996949",
"V. c #986456",
"C. c #A86557",
"Z. c #B3675A",
"A. c #825E68",
"S. c #866468",
"D. c #8E6C6B",
"F. c #976766",
"G. c #98736D",
"H. c #8B6C71",
"J. c #997476",
"K. c #A56464",
"L. c #A7786C",
"P. c #B57262",
"I. c #A97670",
"U. c #C3785C",
"Y. c #928575",
"T. c #A98977",
"R. c #B18876",
"E. c #DD936E",
"W. c #CA8C7A",
"Q. c #D78B76",
"!. c #C9957A",
"~. c #5A6883",
"^. c #667386",
"/. c #AF7D8B",
"(. c #9B8686",
"). c #8C8792",
"_. c #9E8A93",
"`. c #A88887",
"'. c #B48686",
"]. c #AC968A",
"[. c #B29783",
"{. c #AF8F90",
"}. c #BC8E90",
"|. c #A99C92",
" X c #B9A28C",
".X c #ACA39A",
"XX c #BAA993",
"oX c #AEA2A2",
"OX c #B5A9A3",
"+X c #B6B4AC",
"@X c #C99982",
"#X c #EF9B81",
"$X c #D8A78E",
"%X c #C9A597",
"&X c #D0AF95",
"*X c #F2AB88",
"=X c #E5AE90",
"-X c #E9BB99",
";X c #F6BB96",
":X c #C0AEA2",
">X c #CCB6A1",
",X c #D1BFB5",
"<X c #E9BAA2",
"1X c #F8C899",
"2X c #FECC9B",
"3X c #E9C7A9",
"4X c #F6C6A6",
"5X c #FECEA3",
"6X c #FED6A9",
"7X c #EBC9B6",
"8X c #F8CDB6",
"9X c #FCD9B8",
"0X c #FFE1BB",
"qX c #EFD2C9",
"wX c #FDD5C2",
"eX c #FFDDC2",
"rX c #FFE0C2",
/* pixels */
"L L L L L L L L L L L L L L L L L L L L L L L L L L L L L L L L L L L L L L L L L L L L L L L L L L L L L L L L L L L L L L L L ",
"L L L L L L L L L L L L L L L L L L L L L L L L L L L L L L L L L L L L L L L L L L L L L L L L L L L L L L L L L L L L L L L L ",
"L L L L L L L L L L L L L L L L L L L L L L L L L L L L L L L L L L L L L L L L L L L L L L L L L L L L L L L L L L L L L L L L ",
"L L L L L L L L L L L L L L L L L L L L L L L L L L L L L L L L L L L L L L L L L L L L L L L L L L L L L L L L L L L L L L L L ",
"L L L L L L L L L L L L L L L L L L L L L L L L L L L L L L L L L L L L L L L L L L L L L L L L L L L L L L L L L L L L L L L L ",
"L L L L L L L L L L L L L L L L L L L L L L L L L L L L L L L L L L L L L L L L L L L L L L L L L L L L L L L L L L L L L L L L ",
"L L L L L L L L L L L L L L L L L L L L L L L L L L L L L L L L L L L L L L L L L L L L L L L L L L L L L L L L L L L L L L L L ",
"L L L L L L L L L L L L L L L L L L L L L L L L L L L L L L L L L L L L L L L L L L L L L L L L L L L L L L L L L L L L L L L L ",
"L L L L L L L L L L L L L L L L L L L L L L L L L L L L L L L L L L L L L L L L L L L L L L L L L L L L L L L L L L L L L L L L ",
"L L L L L L L L L L L L L L L L L L L L L L L L L L L L I T T } } } }  .T L L L L L L L L L L L L L L L L L L L L L L L L L L L ",
"L L L L L L L L L L L L L L L L L L L L L L L L L L | O...{ F F F S G F Z ..+.L L L L L L L L L L L L L L L L L L L L L L L L L ",
"L L L L L L L L L L L L L L L L L L L L L L L L L T $.v.z.d.~.v.x.~.x.x.^...@ p +.L L L L L L L L L L L L L L L L L L L L L L L ",
"L L L L L L L L L L L L L L L L L L L L L L L L } 2.j.d.v.v.h.l.l.d.v.x.d.d.i.G 8 +.L L L L L L L L L L L L L L L L L L L L L L ",
"L L L L L L L L L L L L L L L L L L L L L L L O.*.d.x.z.z.g.f.z.x.f.l.x.x.v.z.2.G Z O.L L L L L L L L L L L L L L L L L L L L L ",
"L L L L L L L L L L L L L L L L L L L L L L o.i.g.z.z.g.l.l.h.g.g.l.l.d.s.v.x.d.a.j A $.L L L L L L L L L L L L L L L L L L L L ",
"L L L L L L L L L L L L L L L L L L L L L +.$.i.p.p.j.j.f.g.f.4.7.l.l.l.x.l.i.j.d.2...o.I L L L L L L L L L L L L L L L L L L L ",
"L L L L L L L L L L L L L L L L L L L L L w &.p.g.{  .~.j.a.j.3.S &.~.f.~.4.2.d.a.7.C w o.L L L L L L L L L L L L L L L L L L L ",
"L L L L L L L L L L L L L L L L L L L L F w *.p.g.o.u | v.p.2.{ 9 *.~.~.1.D o.c.a.5.V d <.L L L L L L L L L L L L L L L L L L L ",
"L L L L L L L L L L L L L L L L L L L L F j o.%.a.*.+ + %.8.&.s &.p.h.6.w w <.d.@.:.D f $.L L L L L L L L L L L L L L L L L L L ",
"L L L L L L L L L L L L L L L L L L L L g z } 4 y.R - 9.& #.%.{ 6.6.-.I W ; T 0.@ R D f ..| L L L L L L L L L L L L L L L L L L ",
"L L L L L L L L L L L L L L L L L L L L e Z %.f k r / `.3 6 8 D l l r 3 G.[ ; B = $.Z 4 p | L L L A L L L L L L L L L L L L L L ",
"L L L L L L L L L L L L L L L L L L L L L a o.{ e 9.[.8X`.( $ c k $ E G.8X%X[ O @.X.p G <.L L L L L L L L L L L L L L L L L L L ",
"L L L L L L L L L L L L L L L L L L L L r $ z z . `.:X[ ( k.,.X > _ k.( ,.|.Y.  r g 6 c $.L L L L L L L L L L L L L L L L L L L ",
"L L L L L L L L L L L L L L L L L L L U H._ 6 u ) 7XOX  . _.}.` ` '.{.X   OX>X^ r # ( H.).I L L L L L L L L L L L L L L L L L L ",
"L L L L L L L L L L L L L L L L L L L ,X$Xm.X ; ].7X|.O o +X7X!.@X<XXXO o oX8XT.= # ' $XqXL L L L L L L L L L L L L L L L L L L ",
"L L L L L L L L L L L L L L L L L L I W !.n.3 K 3X9X|.  o +XrX6X5X9XXXO . .X9X<XJ n n.W.%XL L L L L L L L L L L L L L L L L L L ",
"L L L L L L L L L L L L L L L L L L L L F.I.`.D.1X0X].% o .X6X2X5X6X XX o |.0X3XJ././.F.| L L L L L L L L L L L L L L L L L L L ",
"L L L L L L L L L L L L L L L L L L L L W ! x 3 B.-XR.X . XX0X1X2X6X%X< X  X4XB.! x ! >.L L L L L L L L L L L L L L L L L L L L ",
"L L L L L L L L L L L L L L L L L L L L L W a 2 m.=XwX>X&X3X2X2X2X1X4X-X3XrX<XV.- v | Y L L L L L L L L L L L L L L L L L L L L ",
"L L L L L L L L L L L L L L L L L L L L L @.*.@.w.e.L.<X4X1X1X5X5X5X;X;X-XT.e.r.;.$.@.L L L L L L L L L L L L L L L L L L L L L ",
"L L L L L L L L L L L L L L L L L L L L L L L I 9.c b S.W.Q.E.*X*X*X#XQ.G.K a 9.I L L L L L L L L L L L L L L L L L L L L L L L ",
"L L L L L L L L L L L L L L L L L L L L L L L L R u.#.1 G.C.C.m.C.V.K.I.X R y.T L L L L L L L L L L L L L L L L L L L L L L L L ",
"L L L L L L L L L L L L L L L L L L L L L L L L 0.| 8 9 H 2 , , : > 1 P u e #.0.I L L L L L L L L L L L L L L L L L L L L L L L ",
"L L L L L L L L L L L L L L L L L L L L L L L y.o.B q M 9 * ;.^.|.q.5 0 0 8 k | y.I L L L L L L L L L L L L L L L L L L L L L L ",
"L L L L L L L L L L L L L L L L L L L L L L I $.0 q q M 9 y ;./.b.q.e a k p 0 0 +.T L L L L L L L L L L L L L L L L L L L L L L ",
"L L L L L L L L L L L L L L L L L L L L L L <.e w V M 9 t = # # # = * e 8 p d d * $.L L L L L L L L L L L L L L L L L L L L L L ",
"L L L L L L L L L L L L L L L L L L L L L L *.8 s f d M B a y a a a t A w d d d u $.L L L L L L L L L L L L L L L L L L L L L L ",
"L L L L L L L L L L L L L L L L L L L L L &.F j l j d p p e u p e e 0 j p Z f z g L $.L L L L L L L L L L L L L L L L L L L L L ",
"L L L L L L L L L L L L L L L L L L L L 1.{ s l g h g p Z Z d 8 p k Z j q w g z g g ..5.L L L L L L L L L L L L L L L L L L L L ",
"L L L L L L L L L L L L L L L L L L L L o.D l h h h k j j q d Z p w s C w Z g z h g p T =.L L L L L L L L L L L L L L L L L L L ",
"L L L L L L L L L L L L L L L L L L L L N & & e t p j d w C d w p w C f C Z w u e * . & 3.L L L L L L L A L L L L L L L L L L L ",
"L L L L L L L L L L L L L L L L L L L L <.^ ) K a e p j M w d Z p w C C 9 w p H K [ Q ] <.L L L L L L L L L L L L L L L L L L L ",
"L L L L L L L L L L L L L L L L L L L R (.eX8XR.J $ 8 k p a p Z w e p B M w = n K.4XrXXXU #.L L L L L L L L L L L L L L L L L L ",
"L L L L L L L L L L L L L L L L L L L I '.5XU.C.w.b p a y y p 0 B t a p N p r n P.P.;X$XP *.L L L L L L L L L L L L L L L L L L ",
"L L L L L L L L L L L L L L L L L L L L G.W.M.Z.w.E h u ; y k z k p a y p p c n C.M.Q.I.b #.L L L L L L L L L L L L L L L L L L ",
"L L L L L L L L L L L L L L L L L L L L U F.C.K.~ c i p y a g s 0 0 a t w p i n K.N.V.e.:.m L L L L L L L L L L L L L L L L L L ",
"L L L L L L L L L L L L L L L L L L L L L L S.A.b u w B t p s z { f u p Z p g m t.k.r.q.L L L L L L L L L L L L L L L L L L L L ",
"L L L L L L L L L L L L L L L L L L L L L L L W R 8 9 w p p } O.O.{ d 0 p w 0 Y :.:.U L L L L L L L L L L L L L L L L L L L L L ",
"L L L L L L L L L L L L L L L L L L L L L L L L * t N w p w T L L o.7 k p 0 p Z =.L L L L L L L L L L L L L L L L L L L L L L L ",
"L L L L L L L L L L L L L L L L L L L L L L L L B 8 p p p p L L L | 8 p 0 p p j L L L L L L L L L L L L L L L L L L L L L L L L ",
"L L L L L L L L L L L L L L L L L L L L L L L L B 8 p p p p L L L L 0 p k 0 p j A L L L L L L L L L L L L L L L L L L L L L L L ",
"L L L L L L L L L L L L L L L L L L L L L L L L B 0 p p w A L L L L d 8 k p w k *.L L L L L L L L L L L L L L L L L L L L L L L ",
"L L L L L L L L L L L L L L L L L L L L L L I L p w t w 0 L L L L L k 0 p 0 u Z -.L L L L L L L L L L L L L L L L L L L L L L L ",
"L L L L L L L L L L L L L L L L L L L L L L L A B p 0 0 p L L L L L L u 7 0 p k -.U L L L L L L L L L L L L L L L L L L L L L L ",
"L L L L L L L L L L L L L L L L L L L L L L L T p w e 0 p L L L L L L 8 0 u u p o.I L L L L L L L L L L L L L L L L L L L L L L ",
"L L L L L L L L L L L L L L L L L L L L L L L q 8 8 p 8 0 L L L L L L 7 0 0 7 0 e | *.*.+.L L L L L L L L L L L L L L L L L L L ",
"L L L L L L L L L L L L L L L L L L L L L L L B p 8 8 0 k L L L L L L k 8 0 8 8 8 8 & @ k ..L L L L L L L L L L L L L L L L L L ",
"L L L L L L L L L L L L L L L L L L L L L L L L L L L L L L L L L L L L L a X.+.+.+.O.} } L L L L L L L L L L L L L L L L L L L ",
"L L L L L L L L L L L L L L L L L L L L L L L L L L L L L L L L L L L L L L L L L L L L L L L L L L L L L L L L L L L L L L L L ",
"L L L L L L L L L L L L L L L L L L L L L L L L L L L L L L L L L L L L L L L L L L L L L L L L L L L L L L L L L L L L L L L L ",
"L L L L L L L L L L L L L L L L L L L L L L L L L L L L L L L L L L L L L L L L L L L L L L L L L L L L L L L L L L L L L L L L ",
"L L L L L L L L L L L L L L L L L L L L L L L L L L L L L L L L L L L L L L L L L L L L L L L L L L L L L L L L L L L L L L L L ",
"L L L L L L L L L L L L L L L L L L L L L L L L L L L L L L L L L L L L L L L L L L L L L L L L L L L L L L L L L L L L L L L L ",
"L L L L L L L L L L L L L L L L L L L L L L L L L L L L L L L L L L L L L L L L L L L L L L L L L L L L L L L L L L L L L L L L "
};
