/* XPM */
static char *_98ffd0d25664f54fdf4fc32dbe7c679JrgaXYMQZLOHNTRd[] = {
/* columns rows colors chars-per-pixel */
"64 68 105 2 ",
"   c None",
".  c #12080F",
"X  c #0A0912",
"o  c #0F0E1A",
"O  c #140911",
"+  c #1C0B14",
"@  c #100F1D",
"#  c #0C111C",
"$  c #13111C",
"%  c #260910",
"&  c #2E0C14",
"*  c #360910",
"=  c #3E0C11",
"-  c #360F1B",
";  c #25101D",
":  c #2D101D",
">  c #3A111B",
",  c #0F1624",
"<  c #071823",
"1  c #0E1926",
"2  c #151323",
"3  c #181627",
"4  c #171826",
"5  c #1B1827",
"6  c #171728",
"7  c #181729",
"8  c #141C2B",
"9  c #1B1A2C",
"0  c #1D1E31",
"q  c #231526",
"w  c #21192A",
"e  c #321220",
"r  c #3C1321",
"t  c #321C2B",
"y  c #391F2E",
"u  c #221E31",
"i  c #2F1F31",
"p  c #1E2032",
"a  c #222235",
"s  c #26253A",
"d  c #2A263C",
"f  c #27283C",
"g  c #2A293F",
"h  c #470A10",
"j  c #5C0D12",
"k  c #4F111D",
"l  c #581017",
"z  c #52111B",
"x  c #760B0F",
"c  c #7B0B0F",
"v  c #690D10",
"b  c #710D10",
"n  c #7C0E10",
"m  c #6B131C",
"M  c #721019",
"N  c #411624",
"B  c #481521",
"V  c #421927",
"C  c #441E2D",
"Z  c #491C29",
"A  c #561622",
"S  c #5C1B27",
"D  c #681420",
"F  c #402133",
"G  c #4D2130",
"H  c #4E2F30",
"J  c #2D2C43",
"K  c #312E45",
"L  c #332F49",
"P  c #2C3049",
"I  c #303047",
"U  c #33324B",
"Y  c #3E3B58",
"T  c #403D5A",
"R  c #840B0F",
"E  c #8A0C0F",
"W  c #860C10",
"Q  c #8D0C10",
"!  c #940C11",
"~  c #9F0D11",
"^  c #A30B0F",
"/  c #A20D11",
"(  c #AC0C11",
")  c #B10D11",
"_  c #B00D11",
"`  c #B30C11",
"'  c #B40D11",
"]  c #B80D12",
"[  c #C00D12",
"{  c #C20D12",
"}  c #9A6E65",
"|  c #B56A60",
" . c #AF7364",
".. c #A47B6A",
"X. c #B97365",
"o. c #BC7365",
"O. c #BF7869",
"+. c #C17869",
"@. c #C17B6B",
"#. c #CF9179",
"$. c #D59A7F",
"%. c #D89D81",
"&. c #DBA891",
"*. c #E8C0AA",
"=. c #F6E0CC",
/* pixels */
"                                                                                                                                ",
"                                                                                                                                ",
"                                                                                                                                ",
"                                                                                                                                ",
"                                                                                                                                ",
"                                                                                                                                ",
"                                                                                                                                ",
"                                                                                                                                ",
"                                                                                                                                ",
"                                                                                                                                ",
"                                                                                                                                ",
"                                                                                                                                ",
"                                                                                                                                ",
"                                                                                                                                ",
"                                                                                                                                ",
"                                                                                                                                ",
"                                                                              c c                                               ",
"                                                                              c                                                 ",
"                                                                              c c                                               ",
"                                                                              c ! c                                             ",
"                                                      3 9 3                   c ' ~ x                                           ",
"                                                    3 f J 9 o               x ~ { _ R c                                         ",
"                                                  2 f p < 1 5 o             c / { { ( R c                                       ",
"                                                  3 P z > - D #           c Q Q n / _ ( c                                       ",
"                                                  3 P 1 , 2 w $           R ~ v b c ^ _ c                                       ",
"                                          T     o 3 U 8 2 3 7 a           W ~ n R % v ( c                                       ",
"                                          U I s 2 3 u L a 7 2 3 o @       R ] W E x v / c                                       ",
"                                          J J K a J 3 9 2 2 s 2 @ o       c _ j = R / Q                                         ",
"                                        U u u U J B i u 7 s 9 X @ o X       R h O ! !                                           ",
"                                        s p 9 J q e m A K a - + X @ @         * O W                                             ",
"                                        3 9 9 9 r A u N S G : ; O X @         X                                                 ",
"                            o.&.=.*.      9 3 7 0 r m Z C F : j   @ @ g       X                                                 ",
"                            @...}  .H     9 9     0 t k Z y >       7 f U     X                                                 ",
"                            | X.$.#.    9 d J       9 9 k > 2       a a J     X                                                 ",
"                              @.%.O.  9 9 J g       z d 9 ; &         J a a                                                     ",
"                                      J 0 s       3 V M l = . X       Y J J o                                                   ",
"                                    J J J       2 9 9 u $ X X X         J J 3                                                   ",
"                                9 9 J 0       3 9 7 9 9 2 3 6 X           s 7                                                   ",
"                                a p 9         3 9 3 s 9 2 9 2 @ X           X                                                   ",
"                                  a         6 2 7 7 3 o 7 7 2 2 X           X                                                   ",
"                                            3 7 7 9 a o @ 3 7 2 o                                                               ",
"                                            3 9 7 d a 2 @ p a 7 @         X                                                     ",
"                                            7 7 d d a   @     a 2         X                                                     ",
"                                              0 J a 9   X   a 4 7         X                                                     ",
"                                            2 7 a 7         2 o $                                                               ",
"                                            7 a p 3       X @ o o       X                                                       ",
"                                            9 a 3 2       @ @ X X       X                                                       ",
"                                            7 9 2           X X X       X                                                       ",
"                                            a 3           X X X                                                                 ",
"                                            a 3           X X                                                                   ",
"                                          a 7 2             X                                                                   ",
"                                          p 3               o 2                                                                 ",
"                                          9 2                 2                                                                 ",
"                                          7 2                                                                                   ",
"                                                                                                                                ",
"                                                                                                                                ",
"                                                                                                                                ",
"                                                                                                                                ",
"                                                                                                                                ",
"                                                                                                                                ",
"                                                                                                                                ",
"                                                                                                                                ",
"                                                                                                                                ",
"                                                                                                                                ",
"                                                                                                                                ",
"                                                                                                                                ",
"                                                                                                                                ",
"                                                                                                                                "
};
