/* XPM */
static char *result[] = {
/* columns rows colors chars-per-pixel */
"64 64 237 2 ",
"   c #0B0205",
".  c #0D030A",
"X  c #0F080C",
"o  c #040301",
"O  c #12050C",
"+  c #18070D",
"@  c #13090F",
"#  c #1A0A0E",
"$  c #140204",
"%  c #150A12",
"&  c #1B0C14",
"*  c #1C0D19",
"=  c #170612",
"-  c #1D1116",
";  c #1E1319",
":  c #0F0511",
">  c #230E17",
",  c #23131B",
"<  c #241518",
"1  c #250F0C",
"2  c #231522",
"3  c #2A1421",
"4  c #261A23",
"5  c #2C1B24",
"6  c #2D1E2A",
"7  c #311C29",
"8  c #2D232C",
"9  c #2A2125",
"0  c #382729",
"q  c #372A36",
"w  c #3C323C",
"e  c #3C3134",
"r  c #272137",
"t  c #161326",
"y  c #472C2D",
"u  c #402E37",
"i  c #43343B",
"p  c #4C3C3C",
"a  c #473738",
"s  c #523B38",
"d  c #4F3A2E",
"f  c #59433E",
"g  c #3D3442",
"h  c #3D3943",
"j  c #3B334E",
"k  c #433542",
"l  c #443A43",
"z  c #4B3D43",
"x  c #443C4A",
"c  c #493C4A",
"v  c #4C434C",
"b  c #464249",
"n  c #544343",
"m  c #5C4A44",
"M  c #55454C",
"N  c #5A4C4D",
"B  c #564848",
"V  c #4C4553",
"C  c #4B4854",
"Z  c #544C53",
"A  c #5B4E54",
"S  c #544D5B",
"D  c #564956",
"F  c #5C5255",
"G  c #56525C",
"H  c #5C535C",
"J  c #5B555B",
"K  c #624C48",
"L  c #65544C",
"P  c #71564D",
"I  c #645453",
"U  c #6B5B54",
"Y  c #63565A",
"T  c #63595B",
"R  c #6B5D5C",
"E  c #695655",
"W  c #735D55",
"Q  c #6B615E",
"!  c #74645C",
"~  c #7B655C",
"^  c #7A6759",
"/  c #565363",
"(  c #5A5463",
")  c #5D5A64",
"_  c #5C5B6B",
"`  c #54586B",
"'  c #5B5172",
"]  c #615662",
"[  c #645C64",
"{  c #695E60",
"}  c #635E6A",
"|  c #685E6A",
" . c #6C6364",
".. c #66626A",
"X. c #6C656B",
"o. c #6D686A",
"O. c #686464",
"+. c #736563",
"@. c #746964",
"#. c #7C6C63",
"$. c #746C6C",
"%. c #7A6D6A",
"&. c #756567",
"*. c #7E7365",
"=. c #77706E",
"-. c #7B726D",
";. c #6A6573",
":. c #686775",
">. c #746D73",
",. c #716B7A",
"<. c #7D7573",
"1. c #7A757A",
"2. c #76747A",
"3. c #6F717E",
"4. c #85715D",
"5. c #836659",
"6. c #836D66",
"7. c #837363",
"8. c #83746C",
"9. c #8B756B",
"0. c #8B7A6B",
"q. c #887869",
"w. c #917D6C",
"e. c #917E67",
"r. c #827572",
"t. c #847B74",
"y. c #8B7D74",
"u. c #857C7A",
"i. c #8B7E7A",
"p. c #8B7372",
"a. c #917E72",
"s. c #8F806E",
"d. c #9A846D",
"f. c #8D8175",
"g. c #8D827B",
"h. c #86817D",
"j. c #938375",
"k. c #93867A",
"l. c #95897C",
"z. c #9B8C7D",
"x. c #9B8876",
"c. c #9E917E",
"v. c #A28D7D",
"b. c #A28B74",
"n. c #A4937E",
"m. c #A59079",
"M. c #B29B7F",
"N. c #7A7682",
"B. c #6B7184",
"V. c #837E80",
"C. c #8E8486",
"Z. c #928681",
"A. c #958B82",
"S. c #9A8D82",
"D. c #998E8B",
"F. c #948C89",
"G. c #9D9183",
"H. c #9D948C",
"J. c #96908E",
"K. c #9C9491",
"L. c #A18D83",
"P. c #A39483",
"I. c #A99583",
"U. c #AA9A85",
"Y. c #A3958A",
"T. c #A69A8A",
"R. c #AB9D8B",
"E. c #A89788",
"W. c #B19E8A",
"Q. c #B39C84",
"!. c #AB9E93",
"~. c #A39891",
"^. c #B19E90",
"/. c #AEA08D",
"(. c #B3A28D",
"). c #B9A58C",
"_. c #BBA98E",
"`. c #AEA291",
"'. c #AAA49B",
"]. c #B4A592",
"[. c #B9A692",
"{. c #B6A995",
"}. c #BAAB95",
"|. c #B5A99B",
" X c #BBAD9A",
".X c #B4A699",
"XX c #BEB19B",
"oX c #AFA7A2",
"OX c #BCABA2",
"+X c #BEB3A4",
"@X c #C2AE95",
"#X c #C3AE99",
"$X c #C3B39C",
"%X c #C9B79A",
"&X c #C5B6A3",
"*X c #C7B9A5",
"=X c #CBBBA5",
"-X c #CCBDAB",
";X c #C8B8A8",
":X c #D2BFA5",
">X c #CEC2AC",
",X c #CFC1A5",
"<X c #D4C4AD",
"1X c #D7C7A9",
"2X c #CCC3B3",
"3X c #D5C6B2",
"4X c #D6CAB4",
"5X c #DCCBB3",
"6X c #DBCDBA",
"7X c #D6C7B9",
"8X c #DED3BC",
"9X c #DDD1B5",
"0X c #E3D3BB",
"qX c #E9DCBD",
"wX c #E4D6B8",
"eX c #E1CEB4",
"rX c #E8E0BE",
"tX c #DCD4C2",
"yX c #E5DBC2",
"uX c #EADDC4",
"iX c #E5DAC7",
"pX c #ECDCCC",
"aX c #ECE2C4",
"sX c #EDE3CB",
"dX c #EFEBCD",
"fX c #F2E5CB",
"gX c #F2E9CE",
"hX c #F1E4C6",
"jX c #EDE6D2",
"kX c #F4EBD3",
"lX c #F5EED9",
"zX c #F1E7D2",
"xX c #F5F3DD",
"cX c #F9F2DB",
"vX c #F8F3D6",
"bX c #FAF6E5",
"nX c #F8EFE2",
/* pixels */
"t zXxXxXxXuX}.X 1 9X<X@X%Xd.< + wXqXwXaXaXM.uX$ < yX@XkXlXlXR.-X  o uXsXsXjXdX4Xm.> pXgXgX X%X# . iXfXzXgXzX=X(.. 7XkXkXzXaXkXvX",
"OXbX%X=X*X=XeXK ! vX[. X XlXQ.9.kX].sXxXcX^ cX! ].U.sXcXcXsXcXx.I aXxX(.(.[.]./.-XU }.@X@X<XaX#.7.$X[.W.W.*XcX,X% kXhX<X<X#X#X@X",
"3X@X$X*X*X*X_.E j._.]._._.(.5.E }. XXXXX$X$X^ ^ R.R./.[.}.}.XX4.0 I.U././.].(.U.n.g.}. X XXX(.Q ^ (.].0X0X}. X7.# ]. X#X X#X$X].",
"-XW.}.$X$X Xz.A l.n.I.U.I.I.0 E v.(.].(.(.(./.^ U.R.P.|. X^ 2XP.#.Z.I.U.U./.T.c.l.%.7.[.[.x.n.R H.Y.].E.E.U.x.:X> Y.I.}.[.R.R.R.",
"-X(.}.$XXX XS.N l.n.I.U.I.U.0 E v.R.[.(.(.(./.^ U.R.I.}.|.4.3XP.%.A.n.R././.U.l.z.+.q.].[.x.P.R S.I.].E.E.U.z.:X> I.U.}.[.T.U./.",
"r.(.(.R.R.n.7.b j.x.z.z.c.#.M R p.a.I.R.R./.P.F U.P.E .X.Xk.t.S.Y c z.P.n.n.P.l.h F k.#.#.l.l.T -.H.T.~ ~ l.k.+X& y.l.#.*.T.-.u.",
",.z z.r.8.&.F G w 8.y.F F @.G i X.{ <.<.7.G.A b e Z.a +.+.%.%.$.x Z G &.X. .h.C } q @.l.k.T r.v O.=.h.+.@.%.%.K.# x i.Z D O.@.%.",
". + * % & 4 ; . X & % = O O O   = 6 D c c 8 4 O O , 8 w q q 7 * $   + # % > &     + > > > % O   . 8 + , , 6 8 2 . v . * % 2 6 2 ",
"s.1XgX0 0 qX8.w.qXyXuXwX0XqX5Xv.%XQ.9X>X-X  1XhXdXsXfXqXqX(.  hXgXuX<XaXaXm U.  aX[.(.[.[.kXuXwX1Xa 1XQ.).wXaXsXgXp.Q.uXuXaXP %X",
"q.n.eXd d I.+.U R.P./.n.n.n.v.0 }.].(.$X$X+ U.(._.[.[.[.].+X@  X X$X&X$XXXXXb.$ U.}.}.[.{.{.].v.n.5 s &X&X$X_.].j.p.W.].).$XwXm.",
"8.j.l.0 0 x.Q L n.I.P.G.G.n.x.0 -X3XP.! Q % I.U.T.P.R.P.P.E . d  X[.].}..X{.p & }.[.[.].].j.(.).)., =X].(.m ].P.z.6.E._.].{.I.z.",
"u.j.F.H.Y.! >. .z.S.G.z.z.s.R.5 8.f.f.%.#.X ! t.f.Y.6.Y.T.Y X [ 8.R.(.%.%.u.i.5 *.7.{.l.z.z.A.%.@.2 !.k.k.y.j.z.j.R m i.f.q.z.j.",
"V.a.F.H.Y.@.>. .z.G.G.z.z.s./.5 8.f.g.%.%.X ! y.f.G.*.Y.Y.Y X ) q.R.(.%.%.t.g.7 #.7.].l.z.S.l.%. .2 `.g.k.f.k.z.j.R m f.f.8.z.j.",
":.V v oXoX@.' ;.f.y.i.g.g.F Z < T t.o.o.o.@  .#.g.{ ( F J Z X O.[ l.Z Q Q M >.# z.$.$.Q R -.Q  .T @ %.O.{ r.<.Y r.D u.C.C.n o.t.",
"O % * * & % O . i 0 < - - & @ X q w % . . . O % $ & & % % + . * q u q > ; % . . & & - - ; < 5 & . o % 4 3 4 * > 4 $ % & & & > = ",
"x.cXcXkXkXfXaXaXf 9.uXqXqX_.(.wXeXp %X<X,X1X-X0XK eXkXvXlXkXuXqXy.9.qXv.c.9X(.z.R.0.4.sXsXgX/.dXO @XM.kXkXfXfXuXE fX(._.).#XuXK ",
",X(.(.[.[.[.(.qX8./.U.).(.[.{.|.{.7.x.&X%X%X}.`.m ].{.XXXX XyX*XF (.I.R./.$XI.l.n. X].].].[.].(.% j.R.R.(.(.R.W.K W.].(.].XX$X4X",
">.z.z.R.R.R.(.Z.5 /.n././.]./.T.!  .7.(.^.k.g.Y.g.P.].]..X.X/.a , H.c.P.P.P.! q.f /.R././.R.U.z.% z.P.I.P././.j.n I.R./.R.P.].f.",
"x j.z.G.G.k.Q f.B P.c.c.c.c.G.F.F { $.L L y.u.v { f.l.!.T.+..Xf.I '.y.S.G.H.~.X.1.P.T.P.G.P.L.c.@ o.%.}.}.<.i.u.z 8.#.z.z.z.n O.",
":.] f.{ Q f. .o.Z b :.;...F t.u.C.w $.F F u.o.[ ) <.p %.=.t.t.t.` h >.h.t.[ ) h =.[ f.y.t.f.l.} % 7.F F F =.$. .D 8 l.j.k.Z F F ",
":.Y f.R { f.o.o.Z l >.>.X.F t.u.C.e @.G F u.o.[ ] <.k %.%.t.t.t.` h >.h.u.[ _ k =.] i.y.y.y.j.} @ *.I F F =.$. .D 8 Z.j.k.Z L F ",
". k q 5 5 i q 6 + # < < < 7 4 5 * @ & & * & # O O q q c x l w V . : 4 & - , > O & k z e u q } ; & * 8 , 4 4 8 c O & < , < 8 5 & ",
"d.zXlX0.9.:XI 0X$X#X$X5X5X5X,X  qXqXsXsXpXtXfX0X+ (.f sXhXjX@X4. .vX[.vXcX9XfXkXkXgX0X:X:X!.p jXuXaXsXuXuXsX<Xp.gX-XwXI.I.nXxX%X",
" X X}.6X5X=X#.}.=X-X-X-X-Xv.j.- R. X XXXXX+X}.#X> z.:X(.(.(.(.U.0 s./.{.}.}. X].W.(.W.W.].L.p.8.q.kX X=X*X X6XE /.).tXW.W.(.R.U.",
"`.].].]..XR.K K [.$X*X-X-X7Xc.< I.R.]./.`.`.].n O M F n.P.P.T.G.n 8.S.}.|.{.].T.R.R.R.W.R..Xr.r.! XX$XP.P.R.U.Y K ;XT.T.T.P.R.P.",
"u z.S.*.6.N u Y.z.S.E S.A.l.Q < z.c.T.R.R.T.Y.$.* 0.j.l.l.G.c.h.8 t.f.j.k.f.G.l.j.f.y.j.f.*.| o.x.j.G.A.S.l.S.( t.z.S.G.G.z.k.l.",
"`.u.R.[ ] Q i Z.t.I t.f.f.Z.p & ( T T.T.H.l.=.>.% #.t.h.h.f.<.J % %.=.-.=.%.@.@.#.-.r.8.r.<.H !.-.h.g.i.u.h.<.k %.@.l.<.-.t.t.<.",
"3 ..k k k 2 = q u.9 ....X.5 G O _ 5 l :.:.S S _ O h G / / J S } . v ( :.:.w 2.G J v V v v i @ ( ) ..( [ [ ) ` @ w ( >.) } ) J G ",
"3 | k k i 2 = q u.9 ....X.5 S O _ 5 k :.:.C S ( : h G / / G Z } . v G :...w 3.G J b V v V i O ( ) ;.J } } ( ` @ w ( ;.| [ ] G G ",
". 6Xx.lXkXgXkXaX>X~ # x.x.,X_.:X$Xj.x.%.%.: R.dX9XyX1XdXzXx.O hXkXjXkXyXtX6X^ . =X,XcXvXvXn.0XaX;X. 9.qXqX5XqXyXhX9.$ ~ ~ 4.9.0.",
"6.1X#X$X$X9X XQ.I.l.m #X XQ.(.(.R.Y.I.7X7X& *XR.`.zXsX0X0X+.. /.&X&X&X%X%XXX,X5 0.0.%X$X$X}.(.n.>X& -X%X%X8X6X*XR./.b.}.}.}.}.}.",
"| a.].{.{.P.P.-XQ.j.0 I E R.R.(.W.R.Y.t.t.- z.R.T.Y.Y.tXtX .# P.I.(.!.XXXX[.*X- f..XG.P.G.G./.l.t.- f.f.f.l.0X6X}.r.A (._.}.].}.",
"A t.y.!.!.P.A.j.8.@.> v.c.#.0.L.k.f.t.-.<.% k.f.G.G.A.A.A.XX& k.G.T.P.].].E v 5 l.z.G.G.S.S.S.&.G.& t.f.f.u.Z.k.i.%.Y f n ].Y.Y.",
">.D.h.u.i.u.r.%.-.Z - >.%.>.r.+.k.f.t.$.o.% f.t.<.g.f.t.h.K.% F A. .X.{ ..o.2.X F.q.<.-.-.<.`.O.S - S t.<.=.o.t.r.v F O.O.A.f.<.",
"* w Z X.;.,.2.( Z k O 1.2.>.u.A Z Z l c b . v C.1.b 3.2.2.b . C V [ _ ( / G g % ..k / _ _ Z H ( V . b x x ..| ..( h O C C 0 k X.",
"y 3XkX5X6X0X3 a _._. X:X,XsXn $ sXaXyXaXaXkXx.y m aXsXf s dXn.aX].. P l.z.q.>X>Xm.^ - s s dXdXlXiXzXqXS.c.# z.& 9.kXqXsXsXfXz.L.",
"y 3XlX5X6XqX5 a (._.}.-X>XsXf $ aXiXyXaXaXkXb.y K yXsXp s dXn.sXW.$ L z.z.q.>X>Xb.^ < s s sXdXxXiXkXqXz.z.1 z.& q.kXyXsXsXsXz.v.",
".X X$XR.T.;XF 6Xv.}.}.}.{.0X#.@.`.XX=XT.P.'./.E k.U.(.! ! |. X{.tX0.P.c.z.q.l.8X/.U.|.+.! L.{.XX X X-X@.@.+X`.6. XP.[.}.{.]. Xz.",
"| R.Y.S.G.j.Y ].I.}.[.{..X$XQ A R././.R.`.`.R.Z 0 T./.T./.|.*.`..X& f l.l.G.P.c.T.P.J.D.D.G.P.XX}.|.-X-.-.~.g.R R.n.P.(.R.R.].R.",
"3.i.@.^ ^ t.b 6.a.A.k.S.G.! t.i t.t.H.Y.P.f.u.h <.g.f.g.h.f.k.&.A X.k.g.k.l.S.G.G.I F K.K.j.A.G.Y.Y.!.u.t.&.f.u.t.j.S.G.Y.U.>.[ ",
"B.o.%...O.$.` M -.<.h.p a C.J._ -.-.$.Z A <.-.3.X.F F 1.N.>.y.%...o.H t.y.g.O.{ $.F <.{ R H.%.<.u.e G $.$.1.*.F J t.g. .| [ <.| ",
"4 } J V v 0 q q [ ..G ....) e @ G x :.C V ( _ q ; q 9 ` ` / ` B.V : x _ _ :.;.} _ C M g g ;.V ( 8 ;.:.,.,.v Z c V ` C ) ) ) S 5 ",
"s uXlXxXxX+XlX7XsX5.y yXaXaXaX9X}.m B iXuXiXsXgXfX,XuX+ + 4 i yX0XiXqXqXrXq.0X  7.sX4X].[.y.#.. y aXlXfXgXkXkXlXkXp p #X#XI.L.w.",
"<.z.$X$X$XXX3X/.P.j.! (./.{.+X].sX*.P wX0XfXdXuXjXy.q.+ + P.N sXXXXX7.P.I.].fX, n.(.{.{.{. XR.@.S.j._.{.}. X X Xa.Y S.W.(.). X7.",
"<.c.$X%X$XXX4X/.P.k.! (./. X$X{.sX*.P wX0XsXfXyXdXy.9.+ = L.M fX+X+X4.P.U.].gX, c.(.{.{.{.}./. .S.j.[.}.{.XX X}.s.T z.W.W.].$X4.",
"$.T.G.XXXX*X4XU.P.H.f././.(. X|.z.T n Q  .l.P.R.(.&.7.q u m Y E./.*X*.+X+X/.0., f.T..X/.`.XX/.I j.f./.(.].`.].].{.i 8.I.I.P.G.z.",
"1.P.T.G.H.|.f ! *.p -.z.c./.H.G.A.%.B g.g.f.P.T.S.G.Y.I A Z.M ~.G.S.t.h.t.`.g.4 t.f.A.G.G.g.t.F 6 g.E k.Z.T.].l |.z.@.k.j.g.f.g.",
"N.J.l.F.H.Q ~.=.=.;.T T T c.l.f.} N.Z F G f.g.A.I F.T M M ( k >.<.h.<.<.<.<.Z.% +.g.h.A.F.<.o.) } <.u.h.u.6 e @.-.M Y H.Y.g.t.o.",
"3.S H , , H n >.:.l u >.>.D S F G i < / / Z V.A Y ( :.u w Z 8 D o.<.Z S S H N.@ G Q O.a a { } g Z | F ....b J.T :.G h v v S v J ",
"  e.~ 7X6X3X7X=   W.Q.fXfXuX&Xf $ 6.j.6X6X;XY.% : |.Y.fXdXdXOXi.z . a d a m S.G.m $ W s d 6X0XuX4.  * 1 1 W ~ + X bXbXbXbXnXx.s ",
"I.d.e.6X0X(.fX}.Y.v.I.W.W..XW.9.^.R.(._.]._.U.F W hX=XW./.[.R.z.d.m v.R.R.3X7XyX{.~ sX].{.}. XjX{.# e.9X9X].s.]., (. X X{.].^ =X",
"] uXW.*X;X^.S.A i.z.Y.R.R.W..XR R.R.R.].].].R.Z Y.S.I.R./././.P.D.7.S.U.I.Y. X!.R.I R.].]..X{.R.Y.& m ].(.(./..X8 S.P.R.R..X}.Y.",
"R iXW.*X;X].S.A j.z.G./.R.R.].R R.U.(._.].].T.A Y.x.U.R.R.`./.G.Y.6.P.P.I.G. XR.R.I R.].{.{.].R.T.> m ].]././..X8 S.P.R.R..XOXG.",
"q I.Y.S.G.P.].F j.k.c.G.P.Y.G.@.8.U.R.].].0.!.z | l.j.l.l.k.l.F.M +.{ Y.Y.A.Z.*XT.Y g.A.Z.`.'.+.H.# p.-.<.`.P.%.9 q.G.H.Y.R f.g.",
"u.S.S.t.t.g.t.Y C A.k.A.A.G.H.K.]  .&.$.$.-...V...S t.g.g.h.Z >.[ R k.t.t.y.g.g.1.c f.k.k.t.T.&.@.* <.+.&.@.1.J ; o.i.l.k.H.u.@.",
";.&.&.>.$.;.} c g ( G S S / ..N.e O...] ] c H k q ( w w w C...H x g S c c o.>.} N.8 } } } 1.X. .S . x D Z X.S x O ..O.z z H _ ) ",
"0 9.I L K 1   0 <X$X[.v.v.w.s : ^ >X4XtXtX9X5X=X#X^.l.Y.H.0 O u Y.qX$XL.I.I.^.= v.W.R.[.^.=XW + $ dXkXkXgX0 !.{. X  z &.#.~ p.W ",
"$X$X3Xv.n.*X&.L._.}.XX}.[.[.x.Y U.(.}. X X].!.#XI.v.R.iXuX3X*.3X=XfX}. X}.}.(.. I.R.uX{..X}.=Xp..XI.R.0XwX0.}. X#.+ x.).@XQ.R.W ",
"].[.l.#X X=XO.{.P.].].R.R.].P.k S.R.{.R.W.].E.k.j.k.G.T.H.|.h.y.j.L.Y.[.{..XU & S.d.R.R.R.!.].] ].v.Y. X X}.P.R.G.& j.P.P.P.E.Y.",
"G.f.}.Y.Y.|.J 3 z.P.I.T.R.~.G # M P.S.z.A.S.l.>.t.f.g.l.l.l.J p i.S.A.Y.G.S.'.+ i.l.l.A.k.S.A.H H.i.Y.2X2XT.H.Y.#.: p U U G.z.z.",
"G.f.|.Y.T.|.G 3 z.P.P.T.T.~.H % M G.S.A.A.A.l.>.r.f.k.Z.l.Z.T n a.A.S.G.G.G.'.@ i.k.z.k.l.Z.S.G H.g.T.2X2XT.H.Y.%.. p U U z.z.z.",
"u.g.j.l.k.A / $.X.g.Y.!.!.J J q @.-.[ l.l.i.[ ,.-.8.y.u.t.<.H *.!.|.A.z.G. .... Y f.f.Z.g.Z.{ ' J.t.F >.$.i.f.<.X.+ | O.O.{ O.<.",
"k c o.v c _ g b S v } S S ) G % } G ,.q q ( _ r x S [ [ [ ) w h c ) i M c ( :.  ;._ i >.2.F ;.x V q F.....) ) ..} X | H ( V ..M ",
"p +.P 0 0 5X6X6XS.B . x.z.7.1X4X].8.-.@ @ z F m %Xv.3X0X9X*X3X0.. n P v.v.B n & 4.I.R.sXsXqXs.%XR z W W W 6.I $ = 3XeX9.0.b.y i."
};
